<svg width="170" height="68" viewBox="0 0 170 68" fill="none" xmlns="http://www.w3.org/2000/svg">
<path d="M32.3238 46.4168L37.0838 39.9568L29.1414 32.0722C28.4039 31.33 27.5273 30.7403 26.5619 30.3369C25.5964 29.9335 24.561 29.7242 23.5146 29.7211C22.4683 29.7179 21.4316 29.9209 20.4637 30.3185C19.4958 30.7161 18.6158 31.3004 17.8738 32.0382L32.3238 46.4168Z" fill="#318053"/>
<path d="M56.0286 14.1814C55.1857 13.5615 54.2289 13.1138 53.2129 12.8637C52.1969 12.6137 51.1416 12.5663 50.1072 12.7241C49.0729 12.882 48.0798 13.2421 47.1847 13.7838C46.2895 14.3255 45.5098 15.0383 44.8902 15.8814L29.24 37.1688C28.3195 38.4292 26.9365 39.273 25.3946 39.5148L32.3374 46.4202L56.0388 14.1848L56.0286 14.1814Z" fill="#3EA669"/>
<path d="M19.4276 46.4134L23.4328 40.9734C23.4328 40.9734 16.4526 33.8266 13.9774 31.62C11.288 29.206 7.17741 29.24 4.28741 31.3616L19.4276 46.4134Z" fill="#595959"/>
<path d="M30.8142 30.379L31.0454 30.6102L42.0274 15.6502C38.8484 14.0012 34.6868 14.569 32.4836 17.3502C30.549 19.822 25.1022 27.4448 25.1022 27.4448C27.2716 27.7849 29.2742 28.8136 30.8142 30.379Z" fill="#595959"/>
<path d="M84.32 19.4038C84.5957 19.3558 84.8737 19.3228 85.153 19.3052C85.4624 19.2848 85.731 19.2712 85.9554 19.2712C86.1798 19.2712 86.4722 19.2712 86.7714 19.3052C87.045 19.3235 87.3174 19.3564 87.5874 19.4038V43.3806C86.6557 43.6446 85.7088 43.8513 84.7518 43.9994C83.5928 44.1737 82.4218 44.2567 81.2498 44.2476C80.0957 44.2544 78.946 44.1034 77.8328 43.7988C76.7737 43.5264 75.7934 43.0087 74.9713 42.2876C74.1491 41.5664 73.5081 40.662 73.1 39.6474C72.6044 38.3615 72.3731 36.9889 72.42 35.6116C72.4042 34.3293 72.6136 33.0542 73.0388 31.8444C73.4184 30.7633 74.0142 29.7707 74.7898 28.9272C75.5513 28.1121 76.4789 27.4697 77.5098 27.0436C78.6251 26.5824 79.822 26.3511 81.0288 26.3636C81.6149 26.3645 82.2002 26.4088 82.7798 26.4962C83.3039 26.5733 83.8219 26.6869 84.3302 26.8362L84.32 19.4038ZM84.32 29.6412C83.8536 29.4577 83.3693 29.3233 82.875 29.24C82.3244 29.1487 81.7671 29.1044 81.209 29.1074C80.3875 29.0854 79.5723 29.2566 78.829 29.6072C78.1792 29.9247 77.6131 30.3905 77.1766 30.9672C76.7271 31.5791 76.3993 32.2717 76.211 33.0072C75.9929 33.851 75.8866 34.7197 75.8948 35.5912C75.9175 37.7037 76.4184 39.2156 77.3976 40.1268C78.3768 41.038 79.7107 41.4913 81.3994 41.4868C81.9343 41.4898 82.469 41.4626 83.0008 41.4052C83.4413 41.3588 83.877 41.2747 84.303 41.1536L84.32 29.6412Z" fill="#595959"/>
<path d="M90.9466 26.741C91.2571 26.6957 91.5688 26.6628 91.8816 26.6424C92.191 26.622 92.4698 26.6084 92.7146 26.6084C93.0251 26.6084 93.3425 26.6197 93.6666 26.6424C93.9515 26.66 94.2352 26.6929 94.5166 26.741L97.852 40.715L101.619 26.741C101.884 26.6947 102.15 26.6618 102.418 26.6424C102.707 26.622 103.006 26.6084 103.319 26.6084L104.237 26.6594C104.489 26.6696 104.74 26.6969 104.989 26.741L108.729 40.4804L112.064 26.741C112.309 26.6968 112.554 26.6628 112.798 26.6424C113.043 26.622 113.308 26.6084 113.601 26.6084C113.893 26.6084 114.118 26.6084 114.417 26.6424C114.716 26.6764 115.022 26.6968 115.335 26.741L110.235 43.8498C109.946 43.894 109.65 43.928 109.351 43.9484C109.052 43.9688 108.776 43.9824 108.535 43.9824C108.293 43.9824 108.021 43.9824 107.732 43.9484C107.443 43.9144 107.154 43.894 106.865 43.8498L103.187 30.9094L99.3514 43.86C99.0409 43.9053 98.7349 43.9382 98.4334 43.9586C98.1319 43.979 97.8599 43.9903 97.6174 43.9926C97.3726 43.9926 97.1006 43.9813 96.8014 43.9586C96.5279 43.9398 96.2555 43.9069 95.9854 43.86L90.9466 26.741Z" fill="#595959"/>
<path d="M129.598 40.8816C129.799 41.2505 129.955 41.642 130.064 42.0478C130.197 42.5153 130.276 42.9968 130.298 43.4826C128.859 44.0152 127.334 44.2746 125.8 44.2476C122.953 44.2476 120.808 43.4418 119.364 41.8302C117.92 40.2186 117.198 38.046 117.198 35.3124C117.187 34.1129 117.367 32.9193 117.732 31.7764C118.062 30.7333 118.601 29.7685 119.316 28.9408C120.04 28.1239 120.933 27.4752 121.934 27.0402C123.083 26.5528 124.321 26.3142 125.569 26.3398C126.395 26.3325 127.22 26.3882 128.037 26.5064C128.734 26.6129 129.418 26.7918 130.077 27.0402C130.07 27.4826 130.02 27.9233 129.928 28.356C129.842 28.8098 129.701 29.2516 129.509 29.6718C128.303 29.2748 127.039 29.0829 125.769 29.104C124.058 29.104 122.78 29.6707 121.934 30.804C121.089 31.9373 120.666 33.4379 120.666 35.3056C120.666 37.4385 121.144 39.0003 122.101 39.9908C123.057 40.9813 124.367 41.4777 126.031 41.48C126.651 41.4838 127.271 41.4395 127.884 41.3474C128.47 41.2528 129.045 41.0967 129.598 40.8816Z" fill="#595959"/>
<path d="M143.171 32.5754C143.171 31.263 142.837 30.3563 142.171 29.8554C141.505 29.3545 140.538 29.0983 139.271 29.087C138.539 29.0834 137.809 29.1448 137.088 29.2706C136.418 29.3909 135.756 29.5522 135.106 29.7534C134.664 28.9468 134.445 28.0375 134.47 27.1184C135.287 26.8598 136.124 26.6699 136.972 26.5506C137.845 26.4195 138.725 26.3525 139.607 26.35C141.831 26.35 143.521 26.8555 144.677 27.8664C145.833 28.8773 146.411 30.4946 146.411 32.7182V43.4214C145.633 43.6005 144.688 43.7841 143.575 43.9722C142.452 44.1617 141.314 44.2561 140.175 44.2544C139.183 44.2646 138.194 44.1642 137.224 43.9552C136.421 43.7886 135.661 43.4601 134.99 42.9896C134.383 42.5504 133.895 41.9659 133.572 41.2896C133.219 40.5041 133.048 39.6484 133.073 38.7872C133.049 37.9442 133.235 37.1086 133.613 36.355C133.992 35.6014 134.551 34.9535 135.242 34.4692C135.938 33.9774 136.718 33.6157 137.544 33.4016C138.431 33.1696 139.346 33.0553 140.264 33.0616C140.975 33.0616 141.559 33.0786 142.015 33.1126C142.47 33.1466 142.853 33.1851 143.164 33.2282L143.171 32.5754ZM143.171 35.8088C142.837 35.7635 142.415 35.7193 141.902 35.6762C141.39 35.6331 140.956 35.6105 140.6 35.6082C139.222 35.6082 138.171 35.8643 137.448 36.3766C136.725 36.8889 136.364 37.6675 136.364 38.7124C136.334 39.2592 136.461 39.8031 136.731 40.2798C136.959 40.6419 137.275 40.9402 137.649 41.1468C138.026 41.3504 138.44 41.4753 138.866 41.514C139.32 41.5593 139.742 41.582 140.134 41.582C140.664 41.5806 141.192 41.5522 141.719 41.497C142.208 41.4523 142.694 41.3693 143.171 41.2488V35.8088Z" fill="#595959"/>
<path d="M151.375 26.741C151.62 26.6957 151.853 26.6628 152.075 26.6424C152.297 26.622 152.531 26.6107 152.776 26.6084C153.02 26.6084 153.265 26.6197 153.51 26.6424C153.739 26.6607 153.966 26.6937 154.19 26.741C154.258 27.0742 154.325 27.5128 154.391 28.0568C154.451 28.5157 154.484 28.9778 154.489 29.4406C154.97 28.6692 155.599 28.0002 156.339 27.472C157.208 26.8866 158.243 26.5947 159.29 26.639C159.467 26.639 159.65 26.6447 159.841 26.656C160.028 26.656 160.181 26.6832 160.324 26.707C160.369 26.9157 160.402 27.1269 160.422 27.3394C160.445 27.5661 160.456 27.7995 160.456 28.0398C160.456 28.3182 160.439 28.5964 160.405 28.8728C160.371 29.1629 160.333 29.4406 160.29 29.7058C160.109 29.6618 159.924 29.6402 159.739 29.6412H159.29C158.709 29.6381 158.13 29.7218 157.573 29.8894C157.02 30.0618 156.516 30.365 156.104 30.7734C155.635 31.2648 155.286 31.8583 155.084 32.5074C154.802 33.4251 154.672 34.3831 154.7 35.343V43.843C154.43 43.8899 154.158 43.9228 153.884 43.9416C153.585 43.9643 153.313 43.9756 153.068 43.9756C152.823 43.9756 152.551 43.9643 152.252 43.9416C151.953 43.9189 151.669 43.8861 151.402 43.843L151.375 26.741Z" fill="#595959"/>
<path d="M57.256 36.1284C57.2991 37.9916 57.7819 39.3516 58.7044 40.2084C59.6269 41.0652 60.9869 41.4981 62.7844 41.5072C64.3205 41.5138 65.8442 41.2312 67.2758 40.6742C67.4714 41.0585 67.6165 41.4665 67.7076 41.888C67.8169 42.3525 67.8841 42.8258 67.9082 43.3024C67.1335 43.6249 66.3249 43.8587 65.4976 43.9994C64.5361 44.162 63.5623 44.2405 62.5872 44.234C61.228 44.2662 59.8745 44.046 58.5956 43.5846C57.5628 43.2066 56.6333 42.5912 55.8821 41.788C55.1309 40.9848 54.5789 40.0163 54.2708 38.9606C53.9273 37.8115 53.7588 36.6171 53.771 35.4178C53.762 34.2199 53.9246 33.0268 54.2538 31.875C54.5469 30.83 55.0502 29.8559 55.7328 29.0122C56.4151 28.1884 57.2738 27.5284 58.2454 27.081C59.37 26.5807 60.5917 26.3368 61.8222 26.367C62.8843 26.3445 63.9391 26.5485 64.9162 26.9654C65.7728 27.3412 66.5348 27.9034 67.1466 28.611C67.7626 29.3433 68.2251 30.192 68.5066 31.1066C68.8253 32.1241 68.9825 33.1854 68.9724 34.2516C68.9724 34.5621 68.9611 34.8897 68.9384 35.2342C68.9157 35.5787 68.8931 35.8723 68.8704 36.1148L57.256 36.1284ZM65.7084 33.66C65.7113 33.0584 65.6277 32.4596 65.4602 31.8818C65.3092 31.3482 65.0614 30.8468 64.7292 30.4028C64.4014 29.9741 63.9806 29.6253 63.4984 29.3828C62.9436 29.1148 62.3328 28.9831 61.7168 28.9986C60.3568 28.9986 59.3198 29.4089 58.6058 30.2294C57.8918 31.0499 57.4532 32.1935 57.29 33.66H65.7084Z" fill="#595959"/>
<path d="M97.8452 49.8202C97.9997 49.7866 98.1566 49.765 98.3144 49.7556H98.6884C98.829 49.7556 98.9695 49.7556 99.11 49.7556C99.2405 49.761 99.3702 49.7781 99.4976 49.8066L100.684 53.8526L101.85 49.8066C101.971 49.7862 102.096 49.7703 102.228 49.759C102.359 49.7477 102.492 49.7477 102.626 49.759H102.989C103.147 49.7692 103.304 49.7908 103.459 49.8236L101.398 55.2432C101.259 55.2644 101.118 55.278 100.977 55.284H100.609H100.252C100.125 55.2781 99.9991 55.2611 99.875 55.233L97.8452 49.8202Z" fill="#808082"/>
<path d="M104.536 50.9456C104.526 50.8004 104.546 50.6547 104.594 50.5174C104.643 50.3802 104.719 50.2544 104.818 50.1479C104.917 50.0414 105.037 49.9564 105.171 49.8983C105.304 49.8402 105.448 49.8101 105.594 49.81H105.998V55.25C105.756 55.2917 105.51 55.3133 105.264 55.3146C105.021 55.313 104.779 55.2914 104.54 55.25L104.536 50.9456Z" fill="#808082"/>
<path d="M146.945 50.9456C146.934 50.8004 146.954 50.6547 147.003 50.5174C147.051 50.3802 147.127 50.2544 147.226 50.1479C147.326 50.0414 147.446 49.9564 147.579 49.8983C147.712 49.8402 147.856 49.8101 148.002 49.81H148.407V55.25C148.164 55.2917 147.918 55.3133 147.672 55.3146C147.429 55.313 147.187 55.2914 146.948 55.25L146.945 50.9456Z" fill="#808082"/>
<path d="M112.2 47.5592V55.08C111.866 55.1783 111.525 55.2533 111.18 55.3044C110.771 55.3614 110.359 55.3875 109.946 55.3826C109.584 55.384 109.225 55.3324 108.878 55.2296C108.548 55.1334 108.243 54.9689 107.981 54.7468C107.712 54.513 107.501 54.2196 107.365 53.89C107.076 53.1144 107.065 52.2621 107.335 51.4794C107.457 51.139 107.646 50.8267 107.892 50.5614C108.139 50.2982 108.438 50.0887 108.769 49.946C109.132 49.7921 109.522 49.7157 109.915 49.7216C110.042 49.7216 110.174 49.7216 110.31 49.7216C110.443 49.7314 110.575 49.7542 110.704 49.7896V48.9192C110.703 48.7285 110.742 48.5398 110.819 48.3653C110.896 48.1908 111.008 48.0343 111.149 47.906C111.29 47.7778 111.457 47.6807 111.638 47.6209C111.819 47.5611 112.01 47.5401 112.2 47.5592ZM110.741 50.9354C110.63 50.906 110.516 50.8833 110.401 50.8674C110.288 50.8607 110.175 50.8607 110.061 50.8674C109.851 50.8624 109.642 50.9116 109.456 51.0102C109.288 51.102 109.142 51.2311 109.031 51.3876C108.914 51.556 108.83 51.7452 108.783 51.9452C108.729 52.1678 108.703 52.3962 108.705 52.6252C108.699 52.873 108.735 53.1201 108.81 53.3562C108.868 53.5364 108.967 53.7006 109.099 53.8356C109.222 53.9551 109.371 54.0437 109.534 54.094C109.712 54.1477 109.896 54.1741 110.082 54.1722C110.195 54.1784 110.309 54.1784 110.422 54.1722C110.537 54.1601 110.651 54.1373 110.762 54.1042L110.741 50.9354Z" fill="#808082"/>
<path d="M125.378 49.81C125.476 49.789 125.575 49.7731 125.674 49.7624C125.787 49.7562 125.901 49.7562 126.014 49.7624C126.12 49.7564 126.225 49.7564 126.33 49.7624C126.421 49.7624 126.515 49.7783 126.613 49.81C126.639 49.8582 126.658 49.9097 126.67 49.963C126.689 50.0288 126.704 50.099 126.718 50.1738C126.732 50.2486 126.744 50.32 126.755 50.388L126.783 50.5682C126.858 50.4561 126.942 50.3504 127.034 50.252C127.136 50.1444 127.25 50.0496 127.374 49.9698C127.51 49.8831 127.656 49.8146 127.809 49.7658C127.983 49.7115 128.165 49.6851 128.347 49.6876C128.601 49.6688 128.856 49.7039 129.096 49.7906C129.335 49.8773 129.554 50.0137 129.737 50.1908C130.086 50.643 130.252 51.2097 130.203 51.7786V55.2466C129.709 55.3308 129.204 55.3308 128.71 55.2466V52.1866C128.727 51.8865 128.667 51.5871 128.537 51.3162C128.475 51.2133 128.386 51.1299 128.279 51.0758C128.172 51.0216 128.051 50.9989 127.932 51.0102C127.808 51.0104 127.684 51.0275 127.565 51.0612C127.435 51.0984 127.318 51.1688 127.225 51.2652C127.111 51.3864 127.026 51.5316 126.976 51.6902C126.906 51.9215 126.874 52.1626 126.881 52.4042V55.25C126.387 55.3342 125.883 55.3342 125.389 55.25L125.378 49.81Z" fill="#808082"/>
<path d="M132.94 47.5558H132.988V53.0706C132.985 53.2459 132.997 53.4211 133.025 53.5942C133.041 53.7044 133.08 53.81 133.141 53.9036C133.19 53.9754 133.262 54.0291 133.345 54.0566C133.447 54.0867 133.554 54.1005 133.661 54.0974H133.844C133.91 54.0909 133.974 54.0807 134.038 54.0668C134.113 54.3405 134.152 54.6228 134.154 54.9066V55.0596C134.153 55.1112 134.146 55.1626 134.133 55.2126C134.002 55.2516 133.866 55.2767 133.729 55.2874C133.57 55.301 133.425 55.3078 133.294 55.3078C132.82 55.3318 132.354 55.1723 131.995 54.8624C131.816 54.6676 131.68 54.4374 131.596 54.1867C131.511 53.9361 131.481 53.6705 131.505 53.4072V48.858C131.504 48.6751 131.541 48.4939 131.614 48.3263C131.688 48.1588 131.796 48.0086 131.931 47.8857C132.067 47.7628 132.226 47.6698 132.4 47.613C132.574 47.5561 132.758 47.5366 132.94 47.5558Z" fill="#808082"/>
<path d="M140.508 49.8202C140.663 49.7866 140.82 49.765 140.978 49.7556H141.352C141.492 49.7556 141.633 49.7556 141.773 49.7556C141.904 49.761 142.033 49.7781 142.161 49.8066L143.347 53.8526L144.5 49.81C144.62 49.7896 144.746 49.7737 144.877 49.7624C145.009 49.7511 145.141 49.7511 145.275 49.7624H145.639C145.797 49.7726 145.954 49.7942 146.108 49.827L144.048 55.2466C143.908 55.2678 143.767 55.2814 143.626 55.2874H143.259H142.902C142.775 55.2815 142.649 55.2645 142.525 55.2364L140.508 49.8202Z" fill="#808082"/>
<path d="M105.267 49.045C105.658 49.045 105.975 48.7284 105.975 48.3378C105.975 47.9472 105.658 47.6306 105.267 47.6306C104.877 47.6306 104.56 47.9472 104.56 48.3378C104.56 48.7284 104.877 49.045 105.267 49.045Z" fill="#808082"/>
<path d="M147.672 47.6306L147.077 48.9906C147.42 49.0079 147.76 48.9192 148.051 48.7368C148.341 48.5543 148.569 48.2868 148.702 47.9706L148.845 47.6306C148.652 47.5804 148.453 47.5597 148.254 47.5694C148.058 47.5692 147.863 47.5897 147.672 47.6306Z" fill="#808082"/>
<path d="M153.51 49.8168C153.51 49.98 153.51 50.0718 153.51 50.1092C153.43 50.0615 153.347 50.0184 153.262 49.98C152.902 49.8278 152.514 49.7537 152.123 49.7624C151.734 49.7532 151.348 49.8274 150.991 49.98C150.683 50.115 150.411 50.3185 150.195 50.575C149.978 50.8383 149.816 51.1424 149.719 51.4692C149.61 51.8274 149.556 52.1999 149.559 52.5742C149.556 52.9452 149.61 53.3144 149.719 53.669C149.818 53.9921 149.98 54.2925 150.195 54.553C150.411 54.8084 150.683 55.0098 150.991 55.1412C151.349 55.2894 151.735 55.3612 152.123 55.352C152.612 55.3715 153.095 55.2397 153.507 54.9746V55.2534C153.691 55.2822 153.878 55.297 154.064 55.2976C154.263 55.3003 154.463 55.2855 154.659 55.2534V49.8134C154.474 49.7829 154.286 49.7681 154.098 49.7692C153.901 49.7683 153.704 49.7843 153.51 49.8168ZM152.109 54.2368C151.95 54.2398 151.792 54.2021 151.651 54.1271C151.51 54.0522 151.39 53.9425 151.303 53.8084C151.136 53.4178 151.05 52.9974 151.05 52.5725C151.05 52.1476 151.136 51.7271 151.303 51.3366C151.389 51.2016 151.509 51.0912 151.65 51.0161C151.791 50.941 151.949 50.9038 152.109 50.9082C152.735 50.9082 153.211 51.2006 153.211 52.5742C153.211 53.9478 152.735 54.2402 152.109 54.2402V54.2368Z" fill="#808082"/>
<path d="M138.591 49.8168C138.591 49.98 138.591 50.0718 138.591 50.1092C138.511 50.0615 138.428 50.0184 138.343 49.98C137.983 49.8278 137.594 49.7537 137.204 49.7624C136.815 49.7532 136.429 49.8274 136.071 49.98C135.764 50.115 135.492 50.3185 135.276 50.575C135.059 50.8383 134.897 51.1424 134.8 51.4692C134.691 51.8274 134.637 52.1999 134.64 52.5742C134.637 52.9452 134.691 53.3144 134.8 53.669C134.899 53.9921 135.061 54.2925 135.276 54.553C135.492 54.8084 135.764 55.0098 136.071 55.1412C136.43 55.2894 136.816 55.3612 137.204 55.352C137.693 55.3715 138.176 55.2397 138.587 54.9746V55.2534C138.772 55.2822 138.958 55.297 139.145 55.2976C139.344 55.3003 139.543 55.2855 139.74 55.2534V49.8134C139.555 49.7829 139.367 49.7681 139.179 49.7692C138.982 49.7683 138.785 49.7843 138.591 49.8168ZM137.19 54.2368C137.03 54.2398 136.873 54.2021 136.732 54.1271C136.591 54.0522 136.471 53.9425 136.384 53.8084C136.217 53.4178 136.131 52.9974 136.131 52.5725C136.131 52.1476 136.217 51.7271 136.384 51.3366C136.47 51.2016 136.589 51.0912 136.731 51.0161C136.872 50.941 137.03 50.9038 137.19 50.9082C137.816 50.9082 138.292 51.2006 138.292 52.5742C138.292 53.9478 137.819 54.2402 137.19 54.2402V54.2368Z" fill="#808082"/>
<path d="M117.218 49.8168C117.218 49.98 117.218 50.0718 117.218 50.1092C117.135 50.0612 117.049 50.018 116.96 49.98C116.6 49.8278 116.212 49.7537 115.821 49.7624C115.432 49.7532 115.046 49.8274 114.689 49.98C114.382 50.115 114.109 50.3185 113.893 50.575C113.676 50.8383 113.515 51.1424 113.417 51.4692C113.309 51.8274 113.255 52.1999 113.257 52.5742C113.254 52.9452 113.308 53.3144 113.417 53.669C113.516 53.9921 113.678 54.2925 113.893 54.553C114.109 54.8084 114.381 55.0098 114.689 55.1412C115.047 55.2894 115.433 55.3612 115.821 55.352C116.31 55.3715 116.793 55.2397 117.205 54.9746V55.2534C117.389 55.2822 117.576 55.297 117.762 55.2976C117.962 55.3003 118.161 55.2855 118.357 55.2534V49.8134C118.172 49.7829 117.984 49.7681 117.796 49.7692C117.603 49.7689 117.409 49.7848 117.218 49.8168ZM115.818 54.2368C115.658 54.2398 115.5 54.2021 115.359 54.1271C115.218 54.0522 115.099 53.9425 115.012 53.8084C114.844 53.4178 114.758 52.9974 114.758 52.5725C114.758 52.1476 114.844 51.7271 115.012 51.3366C115.098 51.2016 115.217 51.0912 115.358 51.0161C115.499 50.941 115.658 50.9038 115.818 50.9082C116.443 50.9082 116.919 51.2006 116.919 52.5742C116.919 53.9478 116.443 54.2402 115.818 54.2402V54.2368Z" fill="#808082"/>
<path d="M124.151 51.255C124.055 50.9503 123.896 50.6689 123.685 50.4288C123.476 50.1954 123.22 50.0089 122.934 49.8814C122.612 49.7416 122.264 49.6731 121.914 49.6808C121.522 49.6719 121.134 49.7485 120.775 49.9052C120.46 50.0484 120.181 50.2584 119.955 50.5206C119.729 50.789 119.559 51.1 119.456 51.4352C119.342 51.7994 119.286 52.1791 119.289 52.5606C119.293 52.7215 119.31 52.8818 119.34 53.04C119.367 53.2105 119.407 53.3787 119.459 53.5432C119.503 53.6786 119.558 53.8104 119.622 53.9376V53.9682L119.643 54.0022C119.728 54.1648 119.83 54.3176 119.949 54.4578C120.174 54.72 120.453 54.93 120.768 55.0732C121.127 55.2299 121.516 55.3065 121.907 55.2976C122.258 55.3053 122.606 55.2369 122.927 55.097C123.213 54.9695 123.469 54.783 123.678 54.5496C123.889 54.3095 124.048 54.0282 124.144 53.7234C124.165 53.6622 124.178 53.601 124.192 53.5364C123.966 53.5115 123.739 53.4979 123.512 53.4956C123.316 53.4989 123.121 53.5126 122.927 53.5364C122.837 53.7289 122.692 53.8905 122.511 54.0012C122.329 54.1119 122.119 54.1666 121.907 54.1586C121.76 54.1698 121.613 54.1492 121.475 54.0981C121.337 54.0471 121.212 53.9668 121.108 53.8628C120.981 53.7211 120.89 53.5508 120.843 53.3664C120.809 53.2365 120.79 53.1029 120.788 52.9686H124.28C124.294 52.8915 124.306 52.7884 124.318 52.6592C124.329 52.53 124.329 52.3985 124.318 52.2648C124.316 51.9215 124.26 51.5807 124.151 51.255ZM120.778 51.935C120.796 51.6284 120.916 51.3364 121.118 51.1054C121.222 51.0014 121.347 50.9212 121.485 50.8701C121.623 50.819 121.771 50.7984 121.917 50.8096C122.053 50.8022 122.189 50.8263 122.314 50.88C122.439 50.9337 122.55 51.0155 122.638 51.119C122.819 51.3513 122.917 51.6373 122.917 51.9316L120.778 51.935Z" fill="#808082"/>
<path d="M32.3238 46.4168L37.0838 39.9568L29.1414 32.0722C28.4039 31.33 27.5273 30.7403 26.5619 30.3369C25.5964 29.9335 24.561 29.7242 23.5146 29.7211C22.4683 29.7179 21.4316 29.9209 20.4637 30.3185C19.4958 30.7161 18.6158 31.3004 17.8738 32.0382L32.3238 46.4168Z" fill="url(#paint0_linear_7_352)"/>
<path d="M56.0286 14.1814C55.1857 13.5615 54.2289 13.1138 53.2129 12.8637C52.1969 12.6137 51.1416 12.5663 50.1072 12.7241C49.0729 12.882 48.0798 13.2421 47.1847 13.7838C46.2895 14.3255 45.5098 15.0383 44.8902 15.8814L29.24 37.1688C28.3195 38.4292 26.9365 39.273 25.3946 39.5148L32.3374 46.4202L56.0388 14.1848L56.0286 14.1814Z" fill="#3EA669"/>
<path d="M19.4276 46.4134L23.4328 40.9734C23.4328 40.9734 16.4526 33.8266 13.9774 31.62C11.288 29.206 7.17741 29.24 4.28741 31.3616L19.4276 46.4134Z" fill="#595959"/>
<path d="M30.8142 30.379L31.0454 30.6102L42.0274 15.6502C38.8484 14.0012 34.6868 14.569 32.4836 17.3502C30.549 19.822 25.1022 27.4448 25.1022 27.4448C27.2716 27.7849 29.2742 28.8136 30.8142 30.379Z" fill="#595959"/>
<path d="M164.638 24.3746C164.25 24.3746 163.871 24.2596 163.549 24.0442C163.226 23.8288 162.975 23.5226 162.826 23.1643C162.677 22.806 162.638 22.4118 162.714 22.0313C162.789 21.6509 162.976 21.3013 163.25 21.0268C163.524 20.7523 163.873 20.5652 164.253 20.4891C164.634 20.413 165.028 20.4514 165.387 20.5993C165.745 20.7473 166.052 20.9982 166.268 21.3204C166.484 21.6426 166.599 22.0215 166.6 22.4094C166.6 22.93 166.393 23.4293 166.026 23.7978C165.658 24.1662 165.159 24.3737 164.638 24.3746ZM164.638 20.8488C164.329 20.8488 164.026 20.9405 163.769 21.1124C163.512 21.2842 163.312 21.5285 163.193 21.8143C163.075 22.1001 163.044 22.4145 163.104 22.7179C163.165 23.0213 163.314 23.3 163.532 23.5187C163.751 23.7374 164.03 23.8864 164.333 23.9467C164.636 24.0071 164.951 23.9761 165.237 23.8577C165.522 23.7394 165.767 23.5389 165.939 23.2817C166.11 23.0245 166.202 22.7221 166.202 22.4128C166.202 21.9977 166.038 21.5995 165.744 21.3057C165.451 21.0118 165.053 20.8463 164.638 20.8454V20.8488Z" fill="#595959"/>
<path d="M164.529 22.2496C164.613 22.2574 164.698 22.2358 164.767 22.1884C164.794 22.1617 164.813 22.1296 164.826 22.0943C164.838 22.0591 164.843 22.0216 164.839 21.9844C164.843 21.9478 164.838 21.9108 164.826 21.8761C164.813 21.8414 164.793 21.8099 164.767 21.7838C164.697 21.7369 164.613 21.7153 164.529 21.7226H164.305V22.2496H164.529ZM164.305 22.6168V23.392H163.775V21.352H164.584C164.791 21.3355 164.999 21.383 165.179 21.488C165.244 21.5383 165.296 21.6042 165.329 21.6796C165.362 21.7551 165.376 21.8377 165.369 21.9198C165.376 22.041 165.341 22.1609 165.271 22.2598C165.195 22.3544 165.092 22.4224 164.975 22.4536C165.049 22.4711 165.116 22.5102 165.169 22.5658C165.24 22.6446 165.298 22.7341 165.342 22.831L165.631 23.4158H165.067L164.815 22.9058C164.781 22.8246 164.729 22.7524 164.662 22.695C164.601 22.6538 164.528 22.6335 164.455 22.6372H164.305" fill="#595959"/>
<defs>
<linearGradient id="paint0_linear_7_352" x1="20.6992" y1="29.2162" x2="35.1118" y2="43.6288" gradientUnits="userSpaceOnUse">
<stop stop-color="#3EA669"/>
<stop offset="1" stop-color="#0D4D2E"/>
</linearGradient>
</defs>
</svg>
