<svg width="200" height="200" viewBox="0 0 200 200" fill="none" xmlns="http://www.w3.org/2000/svg">
<mask id="mask0_901_632" style="mask-type:alpha" maskUnits="userSpaceOnUse" x="0" y="0" width="200" height="200">
<circle cx="100" cy="100" r="100" fill="#D9D9D9"/>
</mask>
<g mask="url(#mask0_901_632)">
<path d="M141.35 108.711L142.104 87.5229H159.701L160.479 108.711L150.914 110.818L141.35 108.711Z" fill="#ECC7A0"/>
<path d="M159.701 87.5229H142.104L141.652 100.246L159.701 87.5229Z" fill="#E5B190"/>
<path d="M180.946 222.726H121.583C123.146 208.463 124.074 183.486 123.638 165.579C123.175 146.591 121.226 127.669 117.808 108.987C117.755 106.724 118.582 104.529 120.114 102.865C120.87 102.043 121.787 101.387 122.808 100.936C123.829 100.486 124.931 100.251 126.047 100.246H141.342C147.502 102.6 154.312 102.6 160.472 100.246H175.767C180.416 100.246 184.144 104.28 184.008 108.929C179.945 127.298 177.739 146.031 177.424 164.844C177.117 183.631 178.729 208.935 180.946 222.726Z" fill="url(#paint0_linear_901_632)"/>
<path d="M186.018 104.54C186.018 104.54 182.216 100.246 176.049 100.246C173.94 105.517 176.461 124.203 180.824 130.325C189.182 139.561 193.341 156.272 195.944 177.326C198.547 198.38 198.287 213.799 198.287 213.799H208.697C208.697 213.799 207.343 177.192 203.763 152.66C200.475 130.128 195.679 115.713 186.018 104.54Z" fill="#3AAD68"/>
<path d="M169.357 62.733L167.599 74.4216C167.599 74.4216 174.491 71.4343 174.629 67.0391C174.767 62.6439 169.357 62.733 169.357 62.733Z" fill="#E5B399"/>
<path d="M132.481 62.733L134.229 74.4216C134.229 74.4216 127.338 71.4343 127.199 67.0391C127.061 62.6439 132.481 62.733 132.481 62.733Z" fill="#E5B399"/>
<path d="M170.66 64.4955C171.304 61.5413 171.279 58.4801 170.586 55.5369C169.893 52.5937 168.551 49.8434 166.657 47.4882C164.764 45.1329 162.367 43.2327 159.644 41.9271C156.92 40.6215 153.939 39.9438 150.92 39.9438C147.901 39.9438 144.92 40.6215 142.197 41.9271C139.473 43.2327 137.077 45.1329 135.183 47.4882C133.289 49.8434 131.947 52.5937 131.254 55.5369C130.562 58.4801 130.537 61.5413 131.181 64.4955V64.4955L134.85 78.8099C135.663 81.9823 137.506 84.7936 140.09 86.8011C142.674 88.8085 145.852 89.8979 149.122 89.8977H152.562C155.804 89.8939 158.954 88.8194 161.524 86.8408C164.095 84.8621 165.942 82.0897 166.78 78.9531L170.156 66.3728C170.304 65.9035 170.418 65.4342 170.533 64.9649L170.66 64.4955Z" fill="#ECC7A0"/>
<path d="M149.583 63.355L147.901 79.5068H153.25L151.751 63.355H149.583Z" fill="#DD9984"/>
<path d="M151.751 63.355L154.019 79.5068H153.25L151.751 63.355Z" fill="#E5B190"/>
<path d="M116.738 104.54C116.738 104.54 120.541 100.246 126.705 100.246C128.814 105.517 126.293 124.203 121.932 130.325C113.572 139.561 109.415 156.272 106.81 177.326C104.204 198.38 104.467 213.799 104.467 213.799H94.0588C94.0588 213.799 95.4107 177.192 98.991 152.66C102.281 130.128 107.077 115.713 116.738 104.54Z" fill="#3AAD68"/>
<path d="M150.914 36.4414C122.242 36.4414 131.576 66.0816 131.576 66.0816C131.576 66.0816 130.845 58.1031 132.336 53.8346C144.349 49.529 157.482 49.529 169.495 53.8346C169.495 53.9003 170.252 66.0816 170.252 66.0816C170.252 66.0816 179.741 36.4414 150.914 36.4414Z" fill="#A07E4D"/>
<path d="M140.012 67.3277C140.858 67.3277 141.544 66.6406 141.544 65.793C141.544 64.9454 140.858 64.2583 140.012 64.2583C139.165 64.2583 138.479 64.9454 138.479 65.793C138.479 66.6406 139.165 67.3277 140.012 67.3277Z" fill="#444242"/>
<path d="M161.819 67.3277C162.666 67.3277 163.352 66.6406 163.352 65.793C163.352 64.9454 162.666 64.2583 161.819 64.2583C160.973 64.2583 160.287 64.9454 160.287 65.793C160.287 66.6406 160.973 67.3277 161.819 67.3277Z" fill="#444242"/>
<path d="M166.266 130.985L167.316 129.558L165.566 127.819C165.236 127.49 164.79 127.305 164.325 127.305C163.86 127.305 163.413 127.49 163.084 127.819V127.819L166.266 130.985Z" fill="#44784E"/>
<path d="M171.489 123.865C171.303 123.728 171.093 123.629 170.869 123.574C170.645 123.519 170.412 123.508 170.185 123.543C169.957 123.578 169.738 123.658 169.541 123.777C169.344 123.897 169.172 124.054 169.036 124.241L165.587 128.934C165.487 129.072 165.36 129.188 165.215 129.277C165.07 129.366 164.909 129.426 164.741 129.452V129.452L166.269 130.975L171.489 123.865Z" fill="#3AAD68"/>
<path d="M163.419 128.885L162.482 127.946L162.44 127.904C162.104 127.631 161.678 127.492 161.246 127.513C160.814 127.535 160.404 127.716 160.097 128.021V128.021L161.751 129.664L163.281 131.187L164.324 129.765L163.419 128.885Z" fill="white"/>
<path d="M163.103 128.57L162.281 127.756L162.238 127.716C161.902 127.442 161.477 127.302 161.044 127.324C160.612 127.346 160.202 127.527 159.895 127.833V127.833L161.549 129.476L163.08 130.999L164.122 129.577L163.103 128.57Z" fill="white"/>
<path d="M163.426 130.982L164.307 129.781C164.307 129.781 162.77 128.206 162.224 127.716C161.928 127.466 161.555 127.324 161.167 127.314C160.779 127.303 160.399 127.425 160.09 127.659L163.426 130.982Z" fill="#5C5C5A"/>
<path d="M165.933 127.446L165.985 127.498L168.403 124.198C168.061 124.011 167.666 123.946 167.282 124.015C166.899 124.084 166.55 124.282 166.294 124.576C165.868 125.116 164.668 126.798 164.668 126.798C165.149 126.872 165.593 127.099 165.933 127.446Z" fill="#5C5C5A"/>
<path d="M121.965 39.797C121.965 39.797 121.084 54.9562 137.641 56.2421C148.524 57.0893 149.768 52.8489 160.573 54.2311C171.377 55.6132 171.761 52.2927 171.761 52.2927C173.401 48.7165 172.162 34.5757 151.751 34.9512C135.895 35.2351 136.085 46.0507 121.965 39.797Z" fill="#9F6031"/>
<path d="M163.834 72.3732C165.91 72.3732 167.593 71.0348 167.593 69.3836C167.593 67.7325 165.91 66.394 163.834 66.394C161.759 66.394 160.076 67.7325 160.076 69.3836C160.076 71.0348 161.759 72.3732 163.834 72.3732Z" fill="#E6B49B"/>
<path d="M137.317 72.3732C139.393 72.3732 141.075 71.0348 141.075 69.3836C141.075 67.7325 139.393 66.394 137.317 66.394C135.241 66.394 133.559 67.7325 133.559 69.3836C133.559 71.0348 135.241 72.3732 137.317 72.3732Z" fill="#E6B49B"/>
<path d="M41.7066 39.9755C39.8134 44.7204 34.9913 47.4847 34.9913 101.19H59.8798V36.709L41.7066 39.9755Z" fill="#FF6D50"/>
<path d="M78.5544 39.9755C80.4476 44.7204 85.2674 47.4847 85.2674 101.19H60.3789V36.709L78.5544 39.9755Z" fill="#FF6D50"/>
<path d="M50.716 101.781L51.4635 80.7388H68.943L69.7163 101.781L60.2173 103.874L50.716 101.781Z" fill="#EDC9A2"/>
<path d="M68.9429 80.7388H51.4633L51.0158 93.373L68.9429 80.7388Z" fill="#E5B392"/>
<path d="M90.045 223.817H32.4046C33.9557 209.651 34.8766 182.648 34.4454 164.86C33.9299 143.645 30.2747 124.733 27.3364 108.652C27.2843 106.404 28.105 104.223 29.6257 102.569C30.3766 101.753 31.2875 101.101 32.3014 100.654C33.3154 100.207 34.4106 99.9735 35.5186 99.9692H50.7113L60.2126 103.602L69.6412 99.9692H84.9042C89.5201 99.9692 93.2246 103.977 93.0887 108.598C89.0529 126.844 86.862 145.451 86.5491 164.138C86.2421 182.793 87.8448 210.12 90.045 223.817Z" fill="url(#paint1_linear_901_632)"/>
<path d="M95.0804 104.233C95.0804 104.233 91.3033 99.9692 85.1784 99.9692C83.0696 105.205 85.5884 123.764 89.9208 129.846C98.2225 139.019 102.353 155.617 104.94 176.53C107.527 197.443 107.265 212.757 107.265 212.757H117.609C117.609 212.757 116.264 176.385 112.71 152.029C109.441 129.649 104.687 115.333 95.0804 104.233Z" fill="#3AAD68"/>
<path d="M78.5264 56.1134L76.7902 67.7245C76.7902 67.7245 83.6344 64.756 83.775 60.3936C83.9155 56.0313 78.5264 56.1134 78.5264 56.1134Z" fill="#E5B392"/>
<path d="M41.9057 56.1134L43.6419 67.7245C43.6419 67.7245 36.7977 64.756 36.6571 60.3936C36.5165 56.0313 41.9057 56.1134 41.9057 56.1134Z" fill="#E5B392"/>
<path d="M79.8291 57.8594C80.4686 54.9251 80.4434 51.8846 79.7552 48.9614C79.0671 46.0382 77.7336 43.3066 75.8527 40.9675C73.9718 38.6283 71.5915 36.741 68.8865 35.4443C66.1816 34.1477 63.2209 33.4746 60.222 33.4746C57.2232 33.4746 54.2625 34.1477 51.5575 35.4443C48.8526 36.741 46.4722 38.6283 44.5913 40.9675C42.7105 43.3066 41.377 46.0382 40.6888 48.9614C40.0007 51.8846 39.9754 54.9251 40.6149 57.8594V57.8594L44.2584 72.0682C45.0661 75.219 46.8973 78.0113 49.4638 80.0051C52.0303 81.9989 55.1861 83.081 58.4342 83.0809H61.8528C65.073 83.0808 68.2032 82.017 70.7584 80.0544C73.3137 78.0918 75.1513 75.34 75.9865 72.2254L79.3394 59.7273C79.4847 59.272 79.5995 58.8027 79.7143 58.3334L79.8291 57.8594Z" fill="#EDC9A2"/>
<path d="M41.0085 59.4408C41.0085 59.4408 35.0734 37.9152 57.6704 37.9152C60.6977 37.9152 69.3461 35.3339 69.7163 42.531C83.7046 46.2199 79.4214 59.4408 79.4214 59.4408C79.4214 59.4408 87.8027 30 60.2173 30C32.6319 30 41.0085 59.4408 41.0085 59.4408Z" fill="#FF6D50"/>
<path d="M58.8934 55.0903L57.2227 71.1319H62.5369L61.0467 55.0903H58.8934Z" fill="#E6B49B"/>
<path d="M61.0468 55.0903L63.8374 71.1319H62.537L61.0468 55.0903Z" fill="#DD9A85"/>
<path d="M71.0471 61.1586C71.9944 61.1586 72.7623 60.3896 72.7623 59.4409C72.7623 58.4922 71.9944 57.7231 71.0471 57.7231C70.0999 57.7231 69.332 58.4922 69.332 59.4409C69.332 60.3896 70.0999 61.1586 71.0471 61.1586Z" fill="#444242"/>
<path d="M49.3852 61.1586C50.3325 61.1586 51.1004 60.3896 51.1004 59.4409C51.1004 58.4922 50.3325 57.7231 49.3852 57.7231C48.4379 57.7231 47.67 58.4922 47.67 59.4409C47.67 60.3896 48.4379 61.1586 49.3852 61.1586Z" fill="#444242"/>
<path d="M26.2679 104.233C26.2679 104.233 30.045 99.9692 36.1699 99.9692C38.2787 105.205 35.7599 123.764 31.4275 129.846C23.1258 139.019 18.9949 155.617 16.4105 176.53C13.826 197.443 14.0861 212.757 14.0861 212.757H3.74365C3.74365 212.757 5.08625 176.392 8.64309 152.024C11.9 129.649 16.6729 115.333 26.2679 104.233Z" fill="#3AAD68"/>
<path d="M76.1388 125.374L77.1932 123.935L75.4312 122.182C75.0991 121.85 74.6491 121.664 74.1799 121.664C73.7108 121.664 73.2608 121.85 72.9287 122.182V122.182L76.1388 125.374Z" fill="#44784E"/>
<path d="M81.3989 118.205C81.2119 118.067 80.9995 117.967 80.774 117.912C80.5485 117.856 80.3143 117.846 80.0847 117.881C79.8551 117.916 79.6346 117.996 79.436 118.116C79.2373 118.237 79.0643 118.395 78.9269 118.583L75.4521 123.316C75.3512 123.455 75.2239 123.572 75.0776 123.662C74.9312 123.751 74.7686 123.811 74.5992 123.837L76.141 125.374L81.4012 118.205H81.3989Z" fill="#3AAD68"/>
<path d="M73.2684 123.257L72.3194 122.318L72.2749 122.279C71.9363 122.003 71.5082 121.863 71.0727 121.885C70.6373 121.907 70.2251 122.089 69.9154 122.396V122.396L71.5837 124.06L73.1255 125.594L74.1775 124.161L73.2684 123.257Z" fill="white"/>
<path d="M72.9497 122.941L72.1202 122.119L72.0757 122.079C71.7371 121.804 71.309 121.664 70.8735 121.686C70.4381 121.707 70.0259 121.889 69.7162 122.197V122.197L71.3845 123.86L72.9262 125.395L73.9783 123.964L72.9497 122.941Z" fill="white"/>
<path d="M73.273 125.372L74.1633 124.161C74.1633 124.161 72.6145 122.575 72.0545 122.079C71.7556 121.827 71.38 121.684 70.9893 121.673C70.5986 121.663 70.2158 121.785 69.9036 122.021L73.273 125.372Z" fill="#5C5C5A"/>
<path d="M75.8012 121.807L75.8527 121.859L78.2919 118.536C77.9496 118.35 77.5546 118.286 77.1715 118.355C76.7883 118.424 76.4398 118.621 76.1831 118.914C75.752 119.46 74.5429 121.155 74.5429 121.155C75.0211 121.232 75.462 121.461 75.8012 121.807Z" fill="#5C5C5A"/>
<path d="M67.5442 30.8472C67.5442 30.8472 36.0645 25.3373 35.5983 72.7743C37.9953 71.77 38.7732 61.9141 38.7732 61.9141C38.7732 61.9141 49.193 60.2574 53.441 50.1036C56.5011 42.7915 66.532 34.928 69.7162 42.531C73.8354 37.8425 67.5442 30.8472 67.5442 30.8472Z" fill="#FF6D50"/>
<path d="M73.4745 66.0793C75.5502 66.0793 77.2329 64.7408 77.2329 63.0897C77.2329 61.4386 75.5502 60.1001 73.4745 60.1001C71.3989 60.1001 69.7162 61.4386 69.7162 63.0897C69.7162 64.7408 71.3989 66.0793 73.4745 66.0793Z" fill="#E6B49B"/>
<path d="M46.9576 66.0793C49.0333 66.0793 50.716 64.7408 50.716 63.0897C50.716 61.4386 49.0333 60.1001 46.9576 60.1001C44.8819 60.1001 43.1993 61.4386 43.1993 63.0897C43.1993 64.7408 44.8819 66.0793 46.9576 66.0793Z" fill="#E6B49B"/>
<path d="M51.386 72.291H69.046C69.046 72.291 65.9718 78.5096 60.3343 78.5096C54.6968 78.5096 51.386 72.291 51.386 72.291Z" fill="white"/>
<path d="M95.9987 78.3947C96.053 78.4318 96.1163 78.4537 96.182 78.4578C96.2476 78.462 96.3131 78.4483 96.3717 78.4183C96.4302 78.3882 96.4796 78.343 96.5146 78.2872C96.5495 78.2314 96.5688 78.1672 96.5704 78.1013L96.6196 76.1443L97.7139 74.5227C97.7505 74.4682 97.7718 74.4047 97.7755 74.3391C97.7792 74.2734 97.7652 74.208 97.735 74.1496C97.7056 74.091 97.6609 74.0414 97.6056 74.0063C97.5503 73.9711 97.4865 73.9517 97.421 73.9502L95.4668 73.9032L93.8501 72.805C93.7955 72.7685 93.7321 72.7474 93.6665 72.7437C93.601 72.7401 93.5356 72.7541 93.4773 72.7842C93.419 72.8144 93.3697 72.8597 93.3348 72.9153C93.2998 72.971 93.2803 73.035 93.2784 73.1007L93.2292 75.0554L92.1349 76.6769C92.0981 76.7309 92.0765 76.7939 92.0724 76.8591C92.0683 76.9243 92.0818 76.9895 92.1115 77.0477C92.1418 77.1066 92.1874 77.1562 92.2435 77.1913C92.2996 77.2264 92.364 77.2457 92.4302 77.2472L94.382 77.2964L95.9987 78.3947Z" fill="white"/>
<path opacity="0.95" d="M8.7064 68.3628C8.745 68.3883 8.78967 68.403 8.83583 68.4054C8.88198 68.4079 8.92795 68.3979 8.969 68.3767C9.01005 68.3554 9.0447 68.3235 9.06938 68.2844C9.09406 68.2453 9.10788 68.2003 9.10941 68.154L9.14222 66.7789L9.9131 65.6361C9.93861 65.5978 9.95344 65.5533 9.95604 65.5074C9.95863 65.4614 9.94891 65.4156 9.92788 65.3747C9.90685 65.3337 9.87527 65.2992 9.83642 65.2746C9.79756 65.25 9.75285 65.2363 9.70691 65.2348L8.3315 65.1996L7.19276 64.4252C7.15436 64.3996 7.10979 64.3847 7.0637 64.3822C7.01761 64.3797 6.9717 64.3897 6.93076 64.411C6.88982 64.4323 6.85535 64.4643 6.83096 64.5035C6.80657 64.5428 6.79314 64.5878 6.79208 64.6341L6.75694 66.0115L5.98606 67.152C5.96045 67.1904 5.94562 67.2351 5.94313 67.2812C5.94063 67.3274 5.95055 67.3734 5.97186 67.4144C5.99317 67.4554 6.02508 67.4899 6.06426 67.5143C6.10344 67.5387 6.14845 67.5522 6.19459 67.5533L7.56765 67.5885L8.7064 68.3628Z" fill="#F1C858"/>
<path d="M19.8665 56.3243C19.8736 56.352 19.888 56.3773 19.9082 56.3975C19.9284 56.4177 19.9536 56.4322 19.9813 56.4393C20.0094 56.4469 20.039 56.4468 20.0671 56.4389C20.0951 56.4311 20.1205 56.4158 20.1406 56.3947L20.7264 55.7634L21.5582 55.5475C21.5859 55.5404 21.6111 55.526 21.6313 55.5058C21.6515 55.4856 21.6659 55.4603 21.673 55.4326C21.6806 55.4044 21.6805 55.3747 21.6727 55.3466C21.6648 55.3186 21.6496 55.2931 21.6285 55.273L20.9982 54.6887L20.785 53.8533C20.7775 53.8254 20.7626 53.8 20.742 53.7798C20.7214 53.7596 20.6958 53.7453 20.6678 53.7383C20.6395 53.7312 20.6098 53.7318 20.5818 53.7401C20.5538 53.7483 20.5285 53.7639 20.5085 53.7852L19.9344 54.4047L19.1003 54.6206C19.0726 54.6277 19.0474 54.6421 19.0272 54.6624C19.007 54.6826 18.9926 54.7079 18.9855 54.7356C18.9776 54.7639 18.9778 54.7939 18.9861 54.8221C18.9944 54.8503 19.0104 54.8756 19.0323 54.8952L19.6603 55.4818L19.8665 56.3243Z" fill="white"/>
<path opacity="0.95" d="M187.722 76.7117C187.745 76.7735 187.785 76.828 187.836 76.8692C187.888 76.9105 187.949 76.9372 188.015 76.9464C188.08 76.9554 188.146 76.9467 188.207 76.9211C188.268 76.8955 188.32 76.8539 188.359 76.8009L189.531 75.2263L191.356 74.5223C191.418 74.4998 191.472 74.4608 191.514 74.4095C191.555 74.3582 191.582 74.2966 191.59 74.2313C191.599 74.166 191.591 74.0995 191.565 74.0385C191.54 73.9775 191.5 73.9242 191.447 73.884L189.873 72.7248L189.17 70.8968C189.147 70.8351 189.108 70.7808 189.057 70.7395C189.006 70.6982 188.944 70.6715 188.879 70.6621C188.814 70.6531 188.747 70.6619 188.686 70.6875C188.625 70.7131 188.572 70.7545 188.533 70.8076L187.373 72.3822L185.548 73.0862C185.486 73.1095 185.432 73.1488 185.391 73.1999C185.35 73.2511 185.323 73.3122 185.313 73.3772C185.304 73.4427 185.313 73.5095 185.339 73.5703C185.365 73.6312 185.407 73.6837 185.461 73.7221L187.033 74.8954L187.722 76.7117Z" fill="#F1C858"/>
<path opacity="0.95" d="M106.104 86.0329C106.128 86.0941 106.168 86.1478 106.22 86.1885C106.271 86.2292 106.333 86.2553 106.398 86.2641C106.463 86.273 106.529 86.2643 106.589 86.2389C106.65 86.2135 106.703 86.1723 106.742 86.1197L107.913 84.5451L109.739 83.8412C109.8 83.8173 109.853 83.7775 109.894 83.7259C109.935 83.6742 109.961 83.6127 109.97 83.5476C109.978 83.4825 109.97 83.4162 109.944 83.3555C109.919 83.2949 109.878 83.2422 109.825 83.2029L108.253 82.0436L107.55 80.2156C107.527 80.154 107.488 80.0996 107.437 80.0583C107.386 80.0171 107.325 79.9903 107.26 79.981C107.194 79.972 107.127 79.9807 107.066 80.0063C107.005 80.0319 106.952 80.0734 106.913 80.1264L105.741 81.701L103.916 82.405C103.855 82.4285 103.801 82.468 103.76 82.5195C103.72 82.5709 103.694 82.6323 103.685 82.6973C103.676 82.7623 103.685 82.8285 103.71 82.8889C103.736 82.9494 103.777 83.0019 103.829 83.041L105.402 84.2143L106.104 86.0329Z" fill="#F1C858"/>
<path opacity="0.95" d="M26.2797 74.1471C26.2255 74.1093 26.1622 74.087 26.0964 74.0824C26.0306 74.0778 25.9648 74.0912 25.9059 74.121C25.8471 74.1508 25.7974 74.196 25.7621 74.2519C25.7269 74.3077 25.7073 74.372 25.7056 74.438L25.6447 76.3951L24.5387 78.0096C24.5019 78.0636 24.4803 78.1265 24.4762 78.1918C24.4721 78.257 24.4856 78.3222 24.5153 78.3804C24.5449 78.439 24.5896 78.4886 24.6449 78.5241C24.7001 78.5596 24.7637 78.5796 24.8293 78.5822L26.7834 78.6408L28.3931 79.7485C28.4468 79.7857 28.5096 79.8078 28.5747 79.8123C28.6399 79.8168 28.705 79.8037 28.7634 79.7743C28.8225 79.7445 28.8726 79.6995 28.9085 79.6437C28.9443 79.588 28.9646 79.5237 28.9672 79.4575L29.0281 77.5027L30.1317 75.8883C30.1694 75.834 30.1917 75.7706 30.1963 75.7047C30.2008 75.6388 30.1875 75.5729 30.1578 75.514C30.128 75.455 30.0828 75.4053 30.0271 75.3699C29.9714 75.3346 29.9071 75.3151 29.8412 75.3133L27.887 75.2547L26.2797 74.1471Z" fill="#F1C858"/>
<path d="M12.8373 85.5308C12.8063 85.5129 12.7712 85.5034 12.7354 85.5034C12.6996 85.5034 12.6644 85.5129 12.6335 85.5308C12.602 85.5473 12.5755 85.5718 12.5566 85.6019C12.5376 85.632 12.527 85.6665 12.5257 85.7021L12.4929 86.7674L11.9001 87.6334C11.8802 87.6628 11.8684 87.6969 11.866 87.7324C11.8635 87.7678 11.8704 87.8033 11.886 87.8352C11.902 87.8672 11.9263 87.8944 11.9564 87.9138C11.9865 87.9332 12.0213 87.9442 12.0571 87.9455L13.1208 87.9783L13.9971 88.5814C14.0269 88.6009 14.0612 88.6121 14.0967 88.614C14.1322 88.6159 14.1676 88.6084 14.1992 88.5922C14.2309 88.576 14.2577 88.5517 14.2769 88.5218C14.2961 88.4919 14.3071 88.4574 14.3088 88.4218L14.3416 87.3588L14.9438 86.4788C14.964 86.4492 14.9759 86.4147 14.9782 86.3788C14.9805 86.343 14.9731 86.3073 14.9568 86.2753C14.9405 86.2434 14.9158 86.2164 14.8855 86.1973C14.8552 86.1782 14.8203 86.1676 14.7844 86.1667L13.723 86.1339L12.8373 85.5308Z" fill="white"/>
<path d="M-1.43686 59.6331C-1.4666 59.613 -1.5011 59.6011 -1.5369 59.5986C-1.57269 59.5962 -1.6085 59.6032 -1.64071 59.619C-1.67249 59.6357 -1.69924 59.6606 -1.71819 59.6912C-1.73713 59.7217 -1.7476 59.7567 -1.74849 59.7927L-1.7813 60.8557L-2.39285 61.7357C-2.413 61.7651 -2.4249 61.7994 -2.42729 61.8351C-2.42968 61.8707 -2.42248 61.9063 -2.40644 61.9382C-2.3904 61.9701 -2.36611 61.9971 -2.33611 62.0163C-2.3061 62.0356 -2.27148 62.0465 -2.23586 62.0478L-1.17209 62.0783L-0.284051 62.6814C-0.254971 62.702 -0.2208 62.7142 -0.185265 62.7167C-0.149731 62.7191 -0.114198 62.7118 -0.0825433 62.6954C-0.0505088 62.6794 -0.0233738 62.6551 -0.00399402 62.6249C0.0153858 62.5948 0.0262941 62.56 0.027583 62.5241L0.0603864 61.4588L0.653192 60.5811C0.673267 60.5514 0.685139 60.5168 0.687607 60.4809C0.690076 60.4451 0.683054 60.4092 0.667251 60.377C0.650568 60.3451 0.625699 60.3184 0.595216 60.2994C0.564733 60.2804 0.529742 60.2699 0.493861 60.269L-0.567567 60.2362L-1.43686 59.6331Z" fill="white"/>
<path d="M109.502 58.9576C109.51 58.9854 109.525 59.0107 109.546 59.0307C109.567 59.0508 109.593 59.065 109.621 59.0719C109.649 59.0788 109.678 59.0782 109.706 59.0701C109.734 59.0619 109.759 59.0466 109.779 59.0257L110.364 58.3968L111.196 58.1809C111.224 58.1736 111.25 58.159 111.27 58.1385C111.29 58.118 111.305 58.0924 111.312 58.0644C111.319 58.0363 111.319 58.0069 111.311 57.9791C111.303 57.9513 111.287 57.9262 111.266 57.9063L110.636 57.322L110.423 56.4866C110.415 56.4586 110.4 56.4331 110.38 56.4128C110.359 56.3924 110.333 56.3779 110.305 56.3708C110.277 56.3636 110.248 56.3641 110.22 56.372C110.192 56.38 110.167 56.3953 110.146 56.4162L109.563 57.0474L108.729 57.2633C108.701 57.2709 108.676 57.2858 108.656 57.3064C108.636 57.327 108.621 57.3526 108.614 57.3806C108.607 57.4086 108.608 57.4379 108.616 57.4656C108.624 57.4932 108.64 57.5182 108.661 57.5379L109.289 58.1245L109.502 58.9576Z" fill="white"/>
<path d="M180.604 85.826C180.658 85.8633 180.722 85.8851 180.787 85.8892C180.853 85.8932 180.919 85.8794 180.978 85.849C181.036 85.8187 181.085 85.7731 181.12 85.717C181.155 85.6609 181.174 85.5964 181.175 85.5303L181.225 83.5756L182.319 81.9541C182.356 81.8997 182.378 81.8363 182.382 81.7706C182.386 81.7048 182.372 81.6392 182.342 81.5806C182.312 81.5219 182.267 81.4725 182.211 81.4375C182.156 81.4024 182.092 81.3831 182.026 81.3815L180.072 81.3346L178.455 80.2363C178.401 80.1998 178.338 80.1786 178.273 80.1749C178.208 80.1712 178.143 80.1851 178.085 80.2152C178.026 80.2451 177.976 80.2902 177.941 80.346C177.905 80.4017 177.885 80.466 177.883 80.532L177.834 82.4891L176.74 84.1106C176.703 84.1651 176.682 84.2285 176.678 84.2941C176.674 84.3597 176.688 84.4251 176.719 84.4834C176.749 84.5417 176.794 84.5908 176.85 84.6255C176.905 84.6603 176.969 84.6794 177.035 84.6809L178.987 84.7301L180.604 85.826Z" fill="white"/>
</g>
<defs>
<linearGradient id="paint0_linear_901_632" x1="117.811" y1="161.486" x2="184.02" y2="161.486" gradientUnits="userSpaceOnUse">
<stop offset="0.62" stop-color="#EBEBEB"/>
<stop offset="1" stop-color="white"/>
</linearGradient>
<linearGradient id="paint1_linear_901_632" x1="60.2173" y1="223.817" x2="60.2173" y2="99.9692" gradientUnits="userSpaceOnUse">
<stop offset="0.62" stop-color="#EBEBEB"/>
<stop offset="1" stop-color="white"/>
</linearGradient>
</defs>
</svg>
