<svg id="Capa_1" data-name="Capa 1" xmlns="http://www.w3.org/2000/svg" xmlns:xlink="http://www.w3.org/1999/xlink" viewBox="0 0 400 400"><defs><style>.cls-1{fill:none;}.cls-2{fill:#edeef0;}.cls-16,.cls-3{fill:#a38051;}.cls-4{fill:#bf9747;}.cls-5{fill:#cacaca;}.cls-6{fill:#6b4d3f;}.cls-7{fill:#f0caa3;}.cls-8{fill:#e79d86;}.cls-9{fill:#ecb69b;}.cls-10{fill:#ab877b;}.cls-11{fill:#ecb592;}.cls-12{fill:#f8c859;}.cls-13{fill:#9f6031;}.cls-14{fill:#fff;}.cls-15{fill:#f7f7f8;}.cls-16{fill-rule:evenodd;}.cls-17{fill:#939393;}.cls-18{fill:#7e7e7e;}.cls-19{fill:#6c9;}.cls-20{fill:#c9c9c9;}.cls-21{fill:#e6e6e6;}.cls-22{fill:url(#Degradado_sin_nombre_20);}.cls-23{fill:#434244;}.cls-24{clip-path:url(#clip-path);}.cls-25{fill:#cfcfcf;}.cls-26{fill:url(#Degradado_sin_nombre_3);}.cls-27{fill:#f6e566;}.cls-28{fill:#decc5f;}.cls-29{fill:#cbccce;}.cls-30{clip-path:url(#clip-path-2);}.cls-31{clip-path:url(#clip-path-3);}.cls-32{fill:#b6b7ba;}.cls-33{fill:#acabb1;}.cls-34{fill:#3a3939;}.cls-35{fill:#a2a2a2;}.cls-36{fill:#bfbfbf;}.cls-37{fill:url(#Degradado_sin_nombre_20-2);}.cls-38{clip-path:url(#clip-path-4);}.cls-39{fill:url(#Degradado_sin_nombre_3-2);}.cls-40{clip-path:url(#clip-path-5);}.cls-41{clip-path:url(#clip-path-6);}</style><linearGradient id="Degradado_sin_nombre_20" x1="79.29" y1="197.58" x2="79.29" y2="207.13" gradientUnits="userSpaceOnUse"><stop offset="0" stop-color="#028d5e"/><stop offset="0.37" stop-color="#1d7a4c" stop-opacity="0.52"/><stop offset="0.7" stop-color="#326c3e" stop-opacity="0.15"/><stop offset="0.86" stop-color="#3a6639" stop-opacity="0"/></linearGradient><clipPath id="clip-path"><path class="cls-1" d="M154.25,187.1c-6.59-4.87-11.66-24.08-36.76-24.08-39.74,0-42.67,5.72-51.91,13.55a92.61,92.61,0,0,1-9,6.82C47.17,189.71,120.18,184.44,154.25,187.1Z"/></clipPath><linearGradient id="Degradado_sin_nombre_3" x1="114.39" y1="197.58" x2="114.39" y2="207.13" gradientUnits="userSpaceOnUse"><stop offset="0" stop-color="#adadad"/><stop offset="0.07" stop-color="#ababab" stop-opacity="0.91"/><stop offset="0.45" stop-color="#a2a2a1" stop-opacity="0.43"/><stop offset="0.73" stop-color="#9b9b9a" stop-opacity="0.12"/><stop offset="0.86" stop-color="#999998" stop-opacity="0"/></linearGradient><clipPath id="clip-path-2"><path class="cls-1" d="M206.34,210.94c-2-8.59-5.4-12.5-13-15.3-.18-.07-.55-.13-.55-.2v41.87l1,0C198,237.38,209.44,236.81,206.34,210.94Z"/></clipPath><clipPath id="clip-path-3"><path class="cls-1" d="M166.05,163.4c-2.62-.67-14.56-1.49-22.31-.52a60.48,60.48,0,0,1,13.71,13.7c1.85,2.64,3.54,5.13,5.2,7.16a9.58,9.58,0,0,0,7.43,3.48h20.33C184.69,183.12,181,170.18,166.05,163.4Z"/></clipPath><linearGradient id="Degradado_sin_nombre_20-2" x1="177.59" y1="270.27" x2="177.59" y2="281.34" xlink:href="#Degradado_sin_nombre_20"/><clipPath id="clip-path-4"><path class="cls-1" d="M264.59,258.09c-7.65-5.65-13.53-27.95-42.66-27.95-46.12,0-49.53,6.64-60.25,15.73a107.48,107.48,0,0,1-10.43,7.92C140.31,261.13,225.05,255,264.59,258.09Z"/></clipPath><linearGradient id="Degradado_sin_nombre_3-2" x1="218.33" y1="270.27" x2="218.33" y2="281.34" xlink:href="#Degradado_sin_nombre_3"/><clipPath id="clip-path-5"><path class="cls-1" d="M325.05,285.77c-2.36-10-6.53-14.51-15.37-17.76-.21-.08-.9-.15-.9-.23v48.59l1.43,0C315.15,316.46,328.65,315.79,325.05,285.77Z"/></clipPath><clipPath id="clip-path-6"><path class="cls-1" d="M278.29,230.6c-3-.77-16.9-1.73-25.9-.6a70.19,70.19,0,0,1,15.92,15.9c2.15,3.06,4.11,6,6,8.31a11.12,11.12,0,0,0,8.62,4h23.6C299.93,253.47,295.61,238.46,278.29,230.6Z"/></clipPath></defs><title>servicios-empresas</title><rect class="cls-1" x="22.2" y="22.09" width="355.81" height="355.81"/><rect class="cls-2" x="100.37" y="74.98" width="222.27" height="125.06"/><path class="cls-3" d="M311.86,85.77V189.26H111.16V85.77H311.86M100.37,75V200H322.65V83.31A8.33,8.33,0,0,0,314.32,75Z"/><path class="cls-4" d="M250.62,169.54c2.54-2.16,4.84-4.06,12.7-4.06s9.76,19.71-.89,28.44S241.29,218.55,238,238.46A204.51,204.51,0,0,0,235,273H221.73s1.72-34.72,6.29-57.91C232.2,193.84,238.25,180,250.62,169.54Z"/><polygon class="cls-5" points="273.8 158.23 274.66 156.29 280.32 156.29 280.32 166.07 272.84 166.07 273.8 158.23"/><circle class="cls-6" cx="259.5" cy="126.35" r="1.64"/><path class="cls-7" d="M259.91,142.68s-2.78-24.13-.57-29.81,6.16-12.93,20.78-11.3,16.35,11.89,16.55,18.43,0,48.94,0,48.94H275.41l.88-19.56H265a4.3,4.3,0,0,1-3-1.34A8.81,8.81,0,0,1,259.91,142.68Z"/><polygon class="cls-8" points="263.35 123.77 259.5 139.04 261.73 139.04 265.8 123.77 263.35 123.77"/><polygon class="cls-9" points="265.8 123.77 261.73 139.04 265.37 139.04 265.8 123.77"/><circle class="cls-6" cx="275.99" cy="126.35" r="1.64"/><path class="cls-10" d="M296.67,120.2c-.19-6.54-1.93-16.88-16.55-18.51-12.06-1.35-16.86,3.3-19.41,8.17a42.59,42.59,0,0,0,19.08.41,25.93,25.93,0,0,0,6.85,10.5v8.49h6.92l1.21,19h2C296.77,136.74,296.77,123.67,296.67,120.2Z"/><polygon class="cls-11" points="276.29 149.39 281.17 149.39 275.82 158.64 276.29 149.39"/><path class="cls-12" d="M317.59,173.13a8,8,0,0,0-7.8-8.21h-14l-7.73,2.3-7.73,2.3-8-4.6h-9.59a8,8,0,0,0-7.8,8.26l3.57,99.29h56.2Z"/><path class="cls-4" d="M321.58,169.19a21,21,0,0,0-12.7-4.06c-7.86,0-9.76,19.71.89,28.44s21.14,24.53,24.45,44.43a203.6,203.6,0,0,1,3,34.48h13.27s-1.72-34.61-6.29-57.8C340,193.38,333.89,179.75,321.58,169.19Z"/><path class="cls-9" d="M288.95,123.53v11.17s6-3.76,5.55-7.89S288.95,123.53,288.95,123.53Z"/><path class="cls-11" d="M259.55,112.58c-.07,0-.14.23-.2.4a12.56,12.56,0,0,0-.6,2.89,32.33,32.33,0,0,0,12.38-3.29Z"/><path class="cls-13" d="M246.85,101.34s.39,13.27,14.29,13.18,11.4-3.56,20.44-2.4,12.3-3.07,12.3-3.07-1.72-12.13-15.67-12.13S264.64,105.29,246.85,101.34Z"/><path class="cls-5" d="M289.13,168.18l-9.49,10.13,3-12.65c.7-1.21,2.78-3.94,4-4.56l3-1.47Z"/><path class="cls-14" d="M301.74,163.4,299,156.32a.8.8,0,0,0-1.08-.44l-9,4.07h0a10.53,10.53,0,0,0-6.33,5.71l2.05-1.79.12.09a4.27,4.27,0,0,0-.05.65c0,2.84,0,7.15-.06,9.43a.74.74,0,0,0,1.16.64l15-8.69A2.12,2.12,0,0,0,301.74,163.4Z"/><polygon class="cls-5" points="279.64 178.31 273.03 166.98 272.72 160.94 277.91 165.66 282.62 165.66 279.64 178.31"/><path class="cls-14" d="M274.54,174.32a.7.7,0,0,0,1.22.12.74.74,0,0,0,.1-.4c-.06-2.28-.07-6.6-.06-9.43a4.27,4.27,0,0,0-.05-.65l.12-.09,2.05,1.79c-4.32-5.68-3.25-9.21-3.25-9.21a.8.8,0,0,0-1.08.44L270.87,164l-.17.35a1.82,1.82,0,0,0,0,1.52Z"/><path class="cls-15" d="M202.68,75H103.22c-6.87,0-12.44,3.5-12.44,7.83V192.21c0,4.32,5.57,7.83,12.44,7.83h99.46Z"/><path class="cls-16" d="M214.66,75H95a5.23,5.23,0,0,0-1.44.2h0l-.13,0-.06,0a4,4,0,0,0-.47.1,3,3,0,0,0,.3-.11c-.35.08-.61.19-.78.24s.54-.18.33-.07a4.73,4.73,0,0,0-.69.29,7,7,0,0,0-2,1.35s.13-.15.07-.12a6.53,6.53,0,0,0-.64.75,2.61,2.61,0,0,1,.16-.23,13.84,13.84,0,0,0-.86,1.25,7.31,7.31,0,0,0-.56,1.21c.05-.15.13-.32.07-.13a7.1,7.1,0,0,0-.37,1.63c0,.26,0,.56,0,.78V85s0-.14,0,0a30.47,30.47,0,0,1,0,3.52,1.19,1.19,0,0,1,0,.2,2.14,2.14,0,0,0,0-.3c0,.31,0,.89,0,1.3,0,.1,0,.17,0,.31.07.74,0,1.26,0,2,0,0,0-.39,0-.29.08,1,0,2.77,0,4.22,0,0,0-.57,0-.4l0,4.33c0-.3,0,.37,0,.41-.07-.88,0-1.83-.06-3,0,.06-.05-.11,0,.11s0,1.57.07,2.4c0,0,0,.32,0,.21.06.77,0,2.32,0,3.52,0,.29,0,1,0,1.51a3,3,0,0,1-.06-.49c0-.12,0,.3,0-.11-.07-.12,0-1.43-.05-1.7,0,.26,0-.14,0,0,0,.43,0,.82,0,1.2,0,.23-.06,1.07,0,.6-.06.35,0,1.15-.06,1.52,0-1.1,0-1.49,0-2.31,0,.48,0,.75,0,1.21,0,0,0,0,0-.1,0,1.46,0,2.43-.05,3.53,0,0,0,0,0,.1,0,.65,0,1.85,0,2.52,0-.12,0-.24,0-.2a6.24,6.24,0,0,1,0,1c0,.23,0,.09,0,.4s-.06.46-.08.82c0-.32.06,1.36,0,.91a13.5,13.5,0,0,1,0,1.41c0,.18,0,.33,0,.6.09-.08.1.13.18.07a4.3,4.3,0,0,1,0-1.11,8.07,8.07,0,0,1,0-1.11c-.06-.68,0-1.63,0-2.72,0,.05,0-.34,0-.51l0,1c0-.14,0,0-.06.21a4.33,4.33,0,0,1,0,.81c0,.11,0-.43,0-.51l0,1.2a8,8,0,0,0,0,1.41c0,.2,0,.2,0,0,0,.92,0,2.07,0,2.72a13.58,13.58,0,0,1,0,1.41,1.8,1.8,0,0,1,0-.31c0,.31,0,.29,0,.6a2.59,2.59,0,0,0,0,.61c0,.09,0-.31,0,0,0,.85,0,1.17,0,1.81,0,.09-.06,0-.06.61,0,0,0,0,0,.09h0a4.86,4.86,0,0,1,0-.5c0,.18,0,.34,0,.5h0a6.39,6.39,0,0,0,0,1c0,.15,0,.39,0,.31a2.44,2.44,0,0,0,0-.41c0,.13,0-.38,0-.7a8.74,8.74,0,0,0,0,1.32l-.09,2.73s0-.16,0-.2a5.3,5.3,0,0,1,0,.91c0-.49,0-1.08,0-1.31a3,3,0,0,1,0,.41c0-.45,0-.09,0-.9,0,.09,0-.29-.06-.29,0,.24,0,.67,0,.81a13.19,13.19,0,0,1,0-1.71,4.19,4.19,0,0,0,0,.5c0-.56,0,.35,0-.21,0-.29,0-.65-.06-1,0,.2,0-.45,0-.61s0-.2,0-.4c.06-.79.05-2.32.06-3.13,0,.15,0,.45,0,.41v-.2c0-.32,0-1,0-1.12,0-.52,0-.5,0-.81,0-.09,0,.06,0-.5,0,0,0,.27,0,.3,0-.79,0-2.23,0-2.72-.15-1.29.05-3.38-.06-4.42,0,0,0-.18,0-.2q0,.39,0,.3c0-.51,0-.49,0-1.21-.05.16,0,.94-.09,1.22,0-.21,0-.74,0-1.11,0,.13,0,1,0,1.31a.46.46,0,0,1,0,.2l0,.41c0,.67,0,1.65,0,2a2.68,2.68,0,0,0,0-.6c0,1.7,0,2.72,0,4.63,0,0,0-.08,0-.1,0,.65,0,1.38,0,2.11,0,0,0-.16,0-.2l0,1.1c0-.21,0,.34-.06.41s0,.08,0,.3,0-.12,0,.1c0,.52,0,1.1,0,1.5,0,0,0-.51,0-.19.05.63,0,2.33,0,2.92,0-.3,0,.31,0,.4s0-.4,0-.11c0,.14,0,.8,0,.91s0-.34,0-.3c0,.41,0,.89,0,1.42,0-.94,0-2.81,0-4.12a5.14,5.14,0,0,0,0,.6c-.06.08,0,.35,0,.61a13.38,13.38,0,0,1,0-1.51c0,.12,0,.24,0,.2v-.2a16.91,16.91,0,0,0,0-1.81c0-.49.07-.89,0-1.32a9.09,9.09,0,0,1-.09,1.22s0-.72,0-.4c0,.73,0,1,0,1.71,0-.08,0-.49,0-.41a6,6,0,0,1,0,.81c0-.29-.05.16,0,.2,0-.27,0,.08,0,.2a3,3,0,0,0,0,.4s0,0,0,.11c0,.31,0,.48,0,.7-.05,1.29.05,3.07,0,4.3,0,.25,0,.76,0,.72a6.91,6.91,0,0,0,0,.71c0-.06,0-.48,0-.51a.91.91,0,0,1,0,.2,3.09,3.09,0,0,0,0,.6l0,.31,0,1.51s0,0,0-.1a5.39,5.39,0,0,1,0,.71c0-.29,0-.51,0-.7,0,.44,0,1.15.05,1.3a3.65,3.65,0,0,1,0-.5c0,.31,0,.58,0,.8,0,0,0,.1,0,.3,0-.22-.05.12-.07.31s0-.22.07-.21c0,.47,0,.1,0,.3,0,.51,0,.58,0,1,0-.11,0-.52-.06-.7,0,.57,0,.61,0,1.1,0,0,0-.19,0,.11.06.63,0,1.92.05,2.71,0-.14,0-.3,0-.4s0,.22,0,.3,0,.39-.06.31c0,.56,0,1.18,0,1.91a1.39,1.39,0,0,0,0,.51c0-.12,0-.24,0-.2v1.41a9.61,9.61,0,0,0-.1,1.32c0,.22,0-.13,0,.1,0,1,0,1.67-.06,3,0-.66,0,.63,0,.21,0,.44,0,1.24,0,1.51,0-.16,0-.17,0,0a1.2,1.2,0,0,0,0,.4c0-.05-.05,0-.06.31s0,0,0,.19l0,.61a1.63,1.63,0,0,0,0-.3c0,.33,0,.17,0,.1,0,.31,0,.62,0,.81,0,0,.07-.27.11,0a1.06,1.06,0,0,1,.07-.41c0,1.48,0,3.46-.1,4.75,0-.19-.06-.18-.09.12.18.58,0,2.54.05,3.82.05.13.06-.09.12-.12a7.32,7.32,0,0,0,.08,1.3l0,1.51s0,0,0,.2,0-.27,0-.11c0,.69.1.84.08,1.5.05-.21.09,0,.11.08a1.22,1.22,0,0,0,0,.3c0-.16,0,0,0,.2,0-.21-.07.51,0,.61,0-.36,0-1,.09-.72a2.86,2.86,0,0,1,0-.61l0,.4c0-.09,0-.28,0-.41a15.36,15.36,0,0,1,0,2.12,6,6,0,0,1,0,1.2,4.55,4.55,0,0,0,0-.6,9.77,9.77,0,0,1,0,1.21c-.06-.82-.1-2.14-.08-3.31-.05.74,0,2.12,0,3.12,0,.43,0,1.37,0,1.91,0,.23,0,.27,0,.51a14.79,14.79,0,0,1,0,2.42c0,.36,0,.06,0,.3s0,.35,0,.31c-.09-1-.14-2.35-.22-3.39a2.92,2.92,0,0,1-.09.72c0,2.24.24,3,.23,5.3.09-.35.13.59.21.07,0,.18,0,.31,0,.4.08-.12.13-.3.19.17,0,0,0-.28,0-.31a.9.9,0,0,0,.06.39c0-.06,0-.39,0-.41a12.73,12.73,0,0,0,.55-2c0-.8.13-1.16.18-1.94,0,.24.08-.49.13-.22a1.61,1.61,0,0,1,0-.41,1.53,1.53,0,0,0,0,.4c0-.49,0-.19,0-.21.07-.29.13-1.13.22-1.34,0,1.07-.09,2.13,0,3a6.47,6.47,0,0,1-.09,1,2,2,0,0,0,0-.6c0,.69-.07,1.43-.07,2.43a19.17,19.17,0,0,0-.08,2.23s0-.27,0-.19c0,1.08,0,2.43,0,3.53-.11.42-.09,2.67-.2,2.75a11.82,11.82,0,0,1-.06,1.22c0-.13-.08-.49-.15-.38-.05.27,0,1.11-.09,1.52a4,4,0,0,1,0,1c0-.07,0-.3,0-.4a6.19,6.19,0,0,1-.16.63,4.64,4.64,0,0,1,0,.91,3.65,3.65,0,0,0,0-.5c0,.32,0,.3,0,.61.07,0,0,.4,0,.6s0-.06.08.19c0,1.26-.18,2.18-.08,3,0-.13,0-.44,0-.71.08-.67.14-1.55.2-2.45,0,0,0,.14,0,.09l0-.9a3.89,3.89,0,0,0,0-.71c0,.41,0-.31.08-.31,0,.32,0,.28.06.19,0,.2,0,.12,0,.4,0,.9-.05,1.95-.05,3.13.06-.44.07-1.43.11-2.13.09.13.11-.24.17-.83,0-.33,0-.07,0-.4s.17-1.27.29-1.05c0,1.25.11,1.22.1,2.5,0,0,.05.39.09.49a2,2,0,0,0,0-.31,3,3,0,0,1,0,.5c.13.3.1-1,.19-1,0,.88,0,2.17.06,2.81,0-.39.07-.56.1-.22,0-.56.11-.64.13-1.23-.05-1-.16-.92-.21-2.08.15-.67.13-3.63.16-4.56,0,.13,0,.21,0,.21,0-.49,0-.71,0-1,0,.08,0-.5,0-.6,0,.15,0,.32,0,.31,0-1.57-.06-2.43-.07-4,0,0,0,0,0-.1,0-2.14,0-3.56-.07-5.53,0,0,0,0,0-.1,0-.42,0-1,0-1.21,0,.08,0,.12,0,.1a30.41,30.41,0,0,1,.1-3.94.84.84,0,0,0,0,.3c0-.29,0-.81.09-.52,0-.51,0-.86.08-.62,0,0,0-.15,0-.11a1.71,1.71,0,0,0,0-.4s0-.05,0-.1c0,.16,0,.35,0,.3,0-.68,0-.14.07-.41a7.54,7.54,0,0,1,0-.8c0,.23,0,0,.07,0a2,2,0,0,0,0,.4c0-.26,0-.17,0-.31s0-.31,0-.4c0,.36,0-.52,0-.31,0,.67,0,1.23,0,1.91-.07.27,0,1.46-.1,1.73,0-.12,0-.23,0-.3a3.66,3.66,0,0,1,0,.41c0,1.09-.14,1.26-.15,2.44a3.45,3.45,0,0,1,0,1s0,.32,0,.7c.09-.24.1.86.18.48a1.36,1.36,0,0,0,0,.4c0-.08,0-.49,0-.41a2.92,2.92,0,0,1,0,.4,9.14,9.14,0,0,0,.15-1.51v1.78c0,.56-.05,1.08,0,1.73h0a7.34,7.34,0,0,0,.08,1.39V194.8A5.24,5.24,0,0,0,95,200H214.66l-10.91-10.78-103.23,0V85.72l110.78.05ZM87.53,109.8a3.39,3.39,0,0,1,0-.5S87.57,109.84,87.53,109.8Zm.05-3.43a4.46,4.46,0,0,1,0,.6A2.35,2.35,0,0,1,87.58,106.37Zm0-.91a6.53,6.53,0,0,1,0,.7A4.59,4.59,0,0,1,87.6,105.46Zm0,7s0,.08,0,.2c0-.2,0-.38,0-.7,0,0,0,0,0-.1C87.67,112.12,87.63,112.09,87.65,112.5ZM87,125.69v-.4C87,125.2,87,125.76,87,125.69Zm-.08,22.46s0-.55,0-.5c0-.26,0-.09,0-.41A6.89,6.89,0,0,1,86.91,148.15Zm.11,4.61c0,.1,0-.3,0,0,0-.5,0-.84,0-1.4,0-.13,0-.14,0,0,0-.32,0-.7,0-.91,0,.58,0,1.14,0,1.71C87.07,152.51,87,152.36,87,152.77Zm.06-27.19a4.48,4.48,0,0,1,0-.6A3.27,3.27,0,0,1,87.08,125.58Zm0,2.11a.63.63,0,0,0-.06-.29c0-.51,0-.89,0-1.31a1.18,1.18,0,0,0,0-.41C87.13,126.23,87.08,127.15,87.1,127.69ZM87.3,122s0-.5,0-.7A4.93,4.93,0,0,1,87.3,122Zm.28,4.69c0,.49,0,.75,0,1.31,0-.41,0-.82,0-1.31Zm-.06,2.12c0-.18,0-.23,0-.21,0-.29,0-.11,0-.09,0-.29,0-.24,0-.51,0,.84,0,1.52,0,2.52,0-.1,0,0-.06-.09A12,12,0,0,0,87.53,128.83Zm0,1.91a3.63,3.63,0,0,1,0,.8s0-.12,0-.09C87.55,131.22,87.53,131.05,87.53,130.74Zm-.06-4.32c0,.08,0,.1,0,.09,0,.31,0,.2,0,.51A3.28,3.28,0,0,1,87.46,126.42Zm0,40a7.14,7.14,0,0,1,0-1.21C87.48,165.65,87.53,166.26,87.48,166.38Zm0-5.84a4.27,4.27,0,0,1,.1-1c0,.32,0,.78,0,.6C87.64,160.87,87.52,161.17,87.49,160.54Zm.32-60.15s0,.09,0,.1c0,.32,0,.43,0,.81A5.32,5.32,0,0,1,87.8,100.39Zm0,1.71c0,.37,0,.49,0,.81A3.16,3.16,0,0,1,87.82,102.1Zm-.05,5.34a3.27,3.27,0,0,1,0,.6A2.13,2.13,0,0,1,87.77,107.45Zm0,1s0-.39,0-.31c0,.24,0,.22,0,.5a1,1,0,0,0,0,.2s0-.39,0-.4S87.75,108.4,87.75,108.46Zm0-1.81a4.53,4.53,0,0,1,0,.5A1.55,1.55,0,0,1,87.73,106.65Zm0,3.22c0-.11,0-.27,0-.5,0-.05,0,.27,0,.29S87.76,109.85,87.74,109.87Zm0,15.31c0,.19,0,1.1,0,.91S87.71,125.52,87.71,125.17Zm.08,47c0,.09,0-.14,0-.09,0-.13,0-.34.06-.31Zm.07-.92c-.08.11-.08.06-.16-.18s0-.79,0-.7l0-.51c0-.09,0,.38.06.59.08,0,.1-.36.15.08S87.87,171,87.86,171.26Zm.06-80.15a3.28,3.28,0,0,1,0-.6C88,90.41,87.93,91,87.93,91.11Zm0-.81c0-.21,0-1,0-1.51,0,.17,0-.08,0,.09C87.92,89.54,87.92,89.71,87.93,90.31Zm1.69,80.57a2.81,2.81,0,0,1,0-.4s0-.08,0-.21A4.18,4.18,0,0,1,89.61,170.87Zm2.59-95.22c.15,0-.39.2-.62.33S92,75.73,92.21,75.65Z"/><path class="cls-16" d="M96,200.33c.63,0,.86,0,1.4-.06a9,9,0,0,0-1.2.05Z"/><path class="cls-16" d="M102.14,157.08c0-.06,0-1.34,0-.4C102.12,156.76,102.1,157.18,102.14,157.08Z"/><path class="cls-16" d="M100.28,74.63c-.41,0-1.23,0-1.36,0C99.35,74.65,100,74.66,100.28,74.63Z"/><path class="cls-16" d="M95.19,74.68c.22,0,.54,0,1-.06A4.26,4.26,0,0,0,95.19,74.68Z"/><path class="cls-16" d="M94.85,74.71v0a5.91,5.91,0,0,0-.68.13C94.09,74.86,94.59,74.72,94.85,74.71Z"/><path class="cls-16" d="M92,76.24c-.11,0,.83-.52.34-.25-.08.09-.33.17-.6.39C91.77,76.42,91.84,76.38,92,76.24Z"/><path class="cls-16" d="M91.75,76a7.47,7.47,0,0,0-.72.55l0,0C91.3,76.26,91.76,76,91.75,76Z"/><path class="cls-16" d="M90.73,77c-.28.19.85-.81.51-.53C90.71,76.9,90.23,77.54,90.73,77Z"/><path class="cls-16" d="M89.81,77.85c0,.07-.11.14,0,0A2.84,2.84,0,0,0,90,77.6a2.56,2.56,0,0,0-.47.77Z"/><path class="cls-16" d="M89.16,79.48h0a4.32,4.32,0,0,0-.28,1A5.37,5.37,0,0,1,89.16,79.48Z"/><path class="cls-16" d="M88.4,82.84a6.31,6.31,0,0,0,0,1Z"/><path class="cls-16" d="M88.46,93.2c0,.3,0-.34,0-.3h0c0,.35,0,.64,0,.8A4.21,4.21,0,0,0,88.46,93.2Z"/><path class="cls-16" d="M88.44,98.34a5.58,5.58,0,0,0,0,.7A5.59,5.59,0,0,0,88.44,98.34Z"/><path class="cls-16" d="M88.68,100.11c0,.12,0,.06,0,0a3.27,3.27,0,0,0,0,.6C88.66,100.3,88.7,100.33,88.68,100.11Z"/><path class="cls-16" d="M88.56,100.43c0,.15,0,.87,0,1C88.57,101.28,88.58,100.57,88.56,100.43Z"/><path class="cls-16" d="M88.68,100.81c0,.08,0,.12,0,.1,0,.21,0,.82,0,1C88.69,101.46,88.7,101.12,88.68,100.81Z"/><path class="cls-16" d="M88.31,105.81a4.39,4.39,0,0,0,0,.9C88.3,106.42,88.34,106,88.31,105.81Z"/><path class="cls-16" d="M88.41,105.79a2.32,2.32,0,0,0,0,.5c0-.19,0-.08,0-.31C88.42,106.12,88.44,105.66,88.41,105.79Z"/><path class="cls-16" d="M88.25,106.12a1.64,1.64,0,0,0,0,.61Z"/><path class="cls-16" d="M88.39,108.61a3,3,0,0,0,0,.5,15,15,0,0,0,0-1.51c0,.32,0,.14,0,.41C88.43,107.74,88.42,109,88.39,108.61Z"/><path class="cls-16" d="M88.51,111.21h0a3,3,0,0,0,0,.5C88.47,111.38,88.52,111.59,88.51,111.21Z"/><path class="cls-16" d="M88.38,113c0,.23,0,.85,0,.9A7.15,7.15,0,0,0,88.38,113Z"/><path class="cls-16" d="M88.2,113.38h0v.6C88.21,114.07,88.18,113.45,88.2,113.38Z"/><path class="cls-16" d="M88,119.65a4.56,4.56,0,0,0,0,.8C88,120.27,88,119.79,88,119.65Z"/><path class="cls-16" d="M88,142.5a5.16,5.16,0,0,0,0-.8A5.14,5.14,0,0,0,88,142.5Z"/><path class="cls-16" d="M87.79,149.18a2.52,2.52,0,0,0,0,.8C87.8,149.63,87.78,149.54,87.79,149.18Z"/><path class="cls-16" d="M87.8,160a4.48,4.48,0,0,0,0,.71c0-.42.06.09.08-.11S87.86,159.88,87.8,160Z"/><path class="cls-16" d="M88,162.85a5.94,5.94,0,0,0,0,.6h0C88,162.54,88,163.35,88,162.85Z"/><path class="cls-16" d="M88.06,163.43c0,.68-.07.35-.1.42l0,.8s0,.13,0,.11c0-.69-.07-.82-.09-1.4a6,6,0,0,0,0,.7,2.47,2.47,0,0,0,0,.61c0,.29,0,.48.07.69,0-.23,0-.41.09-.42C88,164.22,88.11,163.93,88.06,163.43Z"/><path class="cls-16" d="M88.18,164.52s0,.3-.09.22c0,.22,0,.32,0,.5C88.12,164.57,88.19,165.23,88.18,164.52Z"/><path class="cls-16" d="M90.61,176.71a4.24,4.24,0,0,0,0-.5h0C90.59,176.4,90.58,176.82,90.61,176.71Z"/><path class="cls-16" d="M90.55,177.33a2.1,2.1,0,0,0,0-.5c0,.37,0,.29,0,.61S90.52,177.31,90.55,177.33Z"/><path class="cls-16" d="M87.78,179.28s0,.15,0,.29a1.2,1.2,0,0,0,0,.3c0-.41,0-.53,0-1A1,1,0,0,0,87.78,179.28Z"/><path class="cls-16" d="M87.77,179.08c-.07.25-.06,1.74-.08,2.13C87.76,180.73,87.73,179.73,87.77,179.08Z"/><path class="cls-16" d="M87.94,182.48c0,.14,0,.09.07.09a1.13,1.13,0,0,0-.06-.49C88,182.25,87.95,182.39,87.94,182.48Z"/><path class="cls-16" d="M90.61,187a3.17,3.17,0,0,0,0-.71c0,.22,0,.32,0,.31a6.31,6.31,0,0,0,0-.8c0,.34,0,.54,0,1C90.6,186.71,90.58,187.06,90.61,187Z"/><path class="cls-16" d="M88.46,190c0-.4.05-1,0-1.51C88.49,189.14,88.43,189.58,88.46,190Z"/><path class="cls-16" d="M95,202.22a5.14,5.14,0,0,0,.88.09c.28,0-.25-.05-.6-.1C95.23,202.23,95.09,202.21,95,202.22Z"/><path class="cls-16" d="M98,200.16a3.18,3.18,0,0,0-.4,0c.12,0,.11,0,.1,0h.5s0,0-.1,0C98.78,200.24,97.88,200.2,98,200.16Z"/><path class="cls-16" d="M88,128.91v0h0Z"/><path class="cls-16" d="M88,128.88s0-.08,0-.07Z"/><path class="cls-16" d="M97.56,74.67c-.65,0-1.48,0-1.68,0C96.51,74.67,97.09,74.71,97.56,74.67Z"/><path class="cls-16" d="M88.51,85.24c0-.35,0-.53,0-.8,0,.06,0,.12,0,.1v.2C88.5,84.81,88.47,85.27,88.51,85.24Z"/><path class="cls-16" d="M88.43,91.39a1.13,1.13,0,0,0,0,.2,1.21,1.21,0,0,1,0-.2c0,.37,0,.94,0,.7a6.5,6.5,0,0,1,0-.91c0-.25-.05.22-.06-.19,0-.65,0-1.69,0-2,0,.35,0,1.45,0,1.7,0-.57,0-1.27,0-1.71l0-.3c0-.37,0,.08,0-.1s0-1,0-.5c0-.86,0-1.59,0-2.42,0,.68,0,.73,0,1.11,0-.68,0-1.08,0-1.51,0,.16,0,.07,0,0a3.42,3.42,0,0,1,0,.61c0-.11,0-.84,0-.9,0,2.54,0,4.53,0,7C88.41,91.84,88.41,91.53,88.43,91.39Zm.05-3.93a4.42,4.42,0,0,1,0-.6A2.12,2.12,0,0,1,88.48,87.46Z"/><path class="cls-16" d="M88.87,85.28c0,.22,0,.55,0,.61,0-.12,0-.06,0,0C88.87,85.71,88.89,85.29,88.87,85.28Z"/><path class="cls-16" d="M88.69,91.85c0,.39,0,1,0,1.3A12.67,12.67,0,0,0,88.69,91.85Z"/><path class="cls-16" d="M88.65,93.27c.06.08,0-.54,0-.81,0,0,0,0,0,.11S88.66,92.95,88.65,93.27Z"/><path class="cls-16" d="M88.43,97.43a8.47,8.47,0,0,0,0-1.11c0,.08,0,.12,0,.1C88.43,96.81,88.41,97.2,88.43,97.43Z"/><path class="cls-16" d="M88.72,98.39a6.17,6.17,0,0,0,0-.8V98C88.71,97.86,88.71,98.65,88.72,98.39Z"/><path class="cls-16" d="M88.68,102.43c0-.48,0-1.3,0-1.71C88.64,101.29,88.62,102.14,88.68,102.43Z"/><path class="cls-16" d="M88.58,101.84v.2s0-.43,0-.4a1.35,1.35,0,0,0,0,.4C88.56,101.92,88.56,101.8,88.58,101.84Z"/><path class="cls-16" d="M88.41,107.2a5.33,5.33,0,0,0,0-.81C88.42,106.74,88.39,107.1,88.41,107.2Z"/><path class="cls-16" d="M87.46,152.45c0,.29,0,.55,0,.51a3.47,3.47,0,0,0,0,.6,1.07,1.07,0,0,1,0-.2,3.4,3.4,0,0,1,0-.81S87.47,152.53,87.46,152.45Z"/><path class="cls-16" d="M90.21,169.43c0-.3.05-.2,0-.61C90.22,168.7,90.19,169.64,90.21,169.43Z"/><path class="cls-16" d="M87.89,177.76a2.78,2.78,0,0,0-.06.61A4.9,4.9,0,0,0,87.89,177.76Z"/><path class="cls-16" d="M89.15,179.16c0,.34,0,.09,0,0a3,3,0,0,0,0,.5C89.13,179.43,89.18,179.23,89.15,179.16Z"/><path class="cls-16" d="M87.79,180.89c0,.34,0,.43,0,.91A7.7,7.7,0,0,0,87.79,180.89Z"/><path class="cls-16" d="M87.68,181.82a3.43,3.43,0,0,0,0-.61C87.67,181.3,87.66,182.52,87.68,181.82Z"/><path class="cls-16" d="M88.77,188.29c0,.31-.05-.05-.08-.29,0,0-.05.58-.08.11a5.53,5.53,0,0,0,0,.9v-.4c.09-.28.09.25.08.69C88.74,189.1,88.75,188.66,88.77,188.29Z"/><path class="cls-16" d="M92.93,201.52a11.85,11.85,0,0,1-1.49-.89c-.17-.17-.33-.34.13.06,0,0,.07,0-.08-.15a8.53,8.53,0,0,0,1.35.74,2.84,2.84,0,0,1-.6-.37,7.56,7.56,0,0,1-2-1.78,6.77,6.77,0,0,1-1-1.7,7.57,7.57,0,0,1-.32-1.26s0-.06,0-.31a5,5,0,0,1-.05-.59v-.44c0-.21,0-.34.06-.34,0-1.77.14-2.63.05-3.93a6,6,0,0,0-.09,1.32c-.05,0,0,.73-.09.82,0,.33,0,.07,0,.4s0,.24,0,.41c0-.11,0,.22,0,.4-.06-.21,0,.26,0,.61,0,.09,0,.14,0,.11a2.52,2.52,0,0,0,0,.27v.29a6.66,6.66,0,0,0,.39,2.65c-.17-.42,0,.23-.09-.11a7.24,7.24,0,0,0,1,1.88,4.91,4.91,0,0,0,1.27,1.21c-.16-.14-.53-.48-.43-.44a5.07,5.07,0,0,1-1.56-2.15,8.72,8.72,0,0,0,1,1.51,7.21,7.21,0,0,0,1.49,1.3c-.11-.14.86.5,1.3.66C93.25,201.7,93,201.58,92.93,201.52Z"/><path class="cls-17" d="M119.32,158.49c6.52,0,32.21,0,33.06.05,30.45,1.43,34.38,27.77,43.48,29.68,3.71.77,21.47,5.15,28.11,7.6,6,2.22,9.41,5.13,11.56,10.51a27.34,27.34,0,0,1,1.79,8c1.8,22.7-8.82,23.23-12.9,23.17-1-.12-107.15-.31-107.15-.31-20.31.56-34.13-1.8-43.72-2.43-24.09-1.56-21.72-15.74-19.74-30,0-.12.06-.31.06-.44,1.41-9.89,2.14-20.91,16.58-20.91a23,23,0,0,0,7.1-1.39,33.3,33.3,0,0,0,10.38-6.15C98.88,166.62,105.39,162,119.32,158.49Z"/><path class="cls-14" d="M119.1,158.49c32.85,0,36.74,27.78,46.1,29.74,3.71.77,21.47,5.15,28.11,7.6,7.61,2.8,11,6.71,13,15.3,3.1,25.87-8.32,26.44-12.58,26.39-1-.12-107.15-.31-107.15-.31-20.31.56-34.13-1.8-43.72-2.43C22.11,233.43,21,222.68,22.39,210.6c.22-1.92,1.93-15.14,3.49-18.88,2-4.81,5.79-8.3,13.92-8.3a23,23,0,0,0,7.1-1.39,33.3,33.3,0,0,0,10.38-6.15C68.21,166.62,72,158.49,119.1,158.49Z"/><path class="cls-18" d="M194.32,225l-.86,12c16.46.08,30.13.47,30.57.51.09,0,.21.12.3.12,6.92,0,11.18-4.31,12.6-12L237,225Z"/><path class="cls-19" d="M65.22,186.57,25.86,225.93H24s-2.12-2.87-2-9.85a62.45,62.45,0,0,1,1.27-11.85l21.58-21.58a29.17,29.17,0,0,0,9-4.14c4.15-2.85,10.07-9,13.91-11.36,10.87-7.12,19.94-6.88,23.12-7.21C84.15,166.64,65.22,186.57,65.22,186.57Z"/><polygon class="cls-19" points="76.09 186.84 36.97 225.96 60.65 225.96 99.91 186.7 76.09 186.84"/><path class="cls-20" d="M24,225l.18.83c2.67,5.22,8.6,8.09,19.23,8.75,2.44.15,5.1.52,8.18.8a274.54,274.54,0,0,0,35.31,1.54c1.05,0,105.31.46,106.57.58l.24,0c8.6,0,11.57-6.6,12.54-11.76l.05-.76Z"/><path class="cls-21" d="M154.25,187.1c-6.59-4.87-11.66-24.08-36.76-24.08-39.74,0-42.67,5.72-51.91,13.55a92.61,92.61,0,0,1-9,6.82C47.17,189.71,120.18,184.44,154.25,187.1Z"/><polygon class="cls-22" points="89.26 197.59 79.72 207.13 69.32 207.13 78.46 197.59 89.26 197.59"/><path class="cls-23" d="M87.28,198.73h-8a2.06,2.06,0,0,1,0-4.12h8a2.06,2.06,0,0,1,0,4.12Z"/><g class="cls-24"><path class="cls-25" d="M109.71,188.92l29.55-29.55,16.61,24a3.54,3.54,0,0,1-2.91,5.56Z"/><polygon class="cls-25" points="108.78 165.25 104.42 159.82 74.71 190 108.78 190 108.78 165.25"/></g><path class="cls-14" d="M109.45,198c-1.45,0-2.62-1.7-2.62-3.79V162.81c0-2.09,1.17-3.79,2.62-3.79s2.62,1.7,2.62,3.79V194.2C112.07,196.3,110.9,198,109.45,198Z"/><rect class="cls-20" x="109.19" y="163.3" width="0.52" height="62.94"/><polygon class="cls-26" points="124.37 197.59 114.82 207.13 104.42 207.13 113.56 197.59 124.37 197.59"/><path class="cls-23" d="M122.38,198.73h-8a2.06,2.06,0,1,1,0-4.12h8a2.06,2.06,0,1,1,0,4.12Z"/><path class="cls-27" d="M25.8,191.9h0a5,5,0,0,1,2.46,9.23l-5,3.09C23.62,201.4,24.87,194.17,25.8,191.9Z"/><path class="cls-28" d="M200.25,203.58l1.4,3.64a4,4,0,0,0,3.8,2.71h4.17a4,4,0,0,0,4-4C213.66,202.26,198.29,198.36,200.25,203.58Z"/><path class="cls-29" d="M225.74,221.51H218a1.8,1.8,0,0,1,0-3.61h7.73a1.8,1.8,0,1,1,0,3.61Z"/><path class="cls-29" d="M225.74,216.57H218a1.8,1.8,0,0,1,0-3.61h7.73a1.8,1.8,0,0,1,0,3.61Z"/><path class="cls-28" d="M233.41,202.67c-2.54.94-4.69,2.65-4.69,4a4.3,4.3,0,0,0,4,4.34h4A17.85,17.85,0,0,0,233.41,202.67Z"/><g class="cls-30"><path class="cls-27" d="M200.25,203.58l1.4,3.64a4,4,0,0,0,3.8,2.71h4.17a4,4,0,0,0,4-4C213.66,202.26,198.29,198.36,200.25,203.58Z"/></g><path class="cls-21" d="M166.05,163.4c-2.62-.67-14.56-1.49-22.31-.52a60.48,60.48,0,0,1,13.71,13.7c1.85,2.64,3.54,5.13,5.2,7.16a9.58,9.58,0,0,0,7.43,3.48h20.33C184.69,183.12,181,170.18,166.05,163.4Z"/><g class="cls-31"><path class="cls-25" d="M163.1,188.92l29.55-29.55,16.61,24a3.54,3.54,0,0,1-2.91,5.56Z"/></g><path class="cls-14" d="M74.19,198c-1.45,0-2.62-1.46-2.62-3.26v-27c0-1.8,1.17-3.26,2.62-3.26s2.62,1.46,2.62,3.26v27C76.81,196.53,75.64,198,74.19,198Z"/><path class="cls-19" d="M70.87,172.21a29.86,29.86,0,0,1,7.06-4.32c2.15-4.19-3.53-4.08-3.53-4.08l-4,2.18Z"/><path class="cls-23" d="M157.59,251.67c-9.75,0-16.48-7.93-15-17.68S153.21,216.3,163,216.3s16.49,7.94,15,17.69S167.34,251.67,157.59,251.67Z"/><path class="cls-23" d="M69.4,251.67c-9.75,0-16.5-7.93-15-17.68S65,216.3,74.72,216.3s16.5,7.94,15,17.69S79.15,251.67,69.4,251.67Z"/><path class="cls-32" d="M70.75,242.72A7.34,7.34,0,0,1,63.33,234a10.53,10.53,0,0,1,10-8.73A7.34,7.34,0,0,1,80.79,234,10.53,10.53,0,0,1,70.75,242.72Z"/><path class="cls-32" d="M159,242.72a7.32,7.32,0,0,1-7.41-8.73,10.55,10.55,0,0,1,10.06-8.73A7.33,7.33,0,0,1,169,234,10.55,10.55,0,0,1,159,242.72Z"/><path class="cls-33" d="M79.16,227.82,65,240.16a7.46,7.46,0,0,0,5.79,2.56,10.53,10.53,0,0,0,10-8.73A7.64,7.64,0,0,0,79.16,227.82Z"/><path class="cls-34" d="M86.44,221.49l-7.29,6.33A7.64,7.64,0,0,1,80.79,234a10.53,10.53,0,0,1-10,8.73A7.46,7.46,0,0,1,65,240.16l-7.28,6.33a15.11,15.11,0,0,0,11.72,5.18c9.75,0,18.88-7.93,20.35-17.68A15.47,15.47,0,0,0,86.44,221.49Z"/><path class="cls-33" d="M167.39,227.82l-14.22,12.34a7.45,7.45,0,0,0,5.78,2.56A10.55,10.55,0,0,0,169,234,7.63,7.63,0,0,0,167.39,227.82Z"/><path class="cls-34" d="M174.68,221.49l-7.3,6.33A7.63,7.63,0,0,1,169,234,10.55,10.55,0,0,1,159,242.72a7.45,7.45,0,0,1-5.78-2.56l-7.29,6.33a15.08,15.08,0,0,0,11.71,5.18c9.75,0,18.89-7.93,20.38-17.68A15.46,15.46,0,0,0,174.68,221.49Z"/><polygon class="cls-19" points="71.19 191.74 76.09 186.84 77.35 186.84 77.58 191.74 76.81 197.59 73.58 199.05 70.66 196.67 71.19 191.74"/><path class="cls-35" d="M224.05,224.9c7.57,0,37.38,0,38.37.06,35.35,1.66,39.91,32.23,50.47,34.45,4.3.89,24.92,6,32.62,8.82,7,2.57,10.92,6,13.42,12.2a31.73,31.73,0,0,1,2.08,9.29c2.09,26.35-10.24,27-15,26.9-1.18-.14-124.36-.36-124.36-.36-23.57.65-39.61-2.09-50.74-2.82-28-1.81-25.2-18.27-22.91-34.81,0-.14.07-.36.07-.51,1.64-11.48,2.48-24.27,19.25-24.27a26.69,26.69,0,0,0,8.24-1.61,38.64,38.64,0,0,0,12-7.13C200.33,234.33,207.89,229,224.05,224.9Z"/><path class="cls-14" d="M223.8,224.89c38.13,0,42.65,32.24,53.5,34.52,4.3.89,24.92,6,32.62,8.82,8.84,3.25,12.77,7.79,15.12,17.76,3.6,30-9.65,30.69-14.6,30.62-1.18-.14-124.36-.36-124.36-.36-23.57.65-39.61-2.09-50.74-2.82-24.12-1.56-25.38-14-23.8-28.05.25-2.23,2.23-17.57,4-21.91,2.33-5.58,6.72-9.63,16.15-9.63a26.69,26.69,0,0,0,8.24-1.61,38.64,38.64,0,0,0,12-7.13C164.74,234.33,169.15,224.89,223.8,224.89Z"/><path class="cls-18" d="M311.1,303l-1,13.52c19.1.09,35,.31,35.48.36l.34,0c8,0,13-4.6,14.63-13.49l.09-.43Z"/><path class="cls-19" d="M161.27,257.49l-45.68,45.68H113.4s-2.45-3.33-2.31-11.43A72.48,72.48,0,0,1,112.56,278l25-25a33.86,33.86,0,0,0,10.43-4.8c4.82-3.31,11.69-10.41,16.14-13.19,12.62-8.27,23.15-8,26.84-8.37C183.23,234.36,161.27,257.49,161.27,257.49Z"/><polygon class="cls-19" points="173.88 257.79 128.48 303.2 155.96 303.2 201.53 257.63 173.88 257.79"/><path class="cls-36" d="M113.4,303l.21.5c3.1,6.06,10,9.16,22.32,9.92,2.83.18,5.92.49,9.5.82a320.37,320.37,0,0,0,41,1.72c1.22,0,122.22.51,123.69.65h.28c10,0,13.42-7.21,14.55-13.2L325,303Z"/><path class="cls-21" d="M264.59,258.09c-7.65-5.65-13.53-27.95-42.66-27.95-46.12,0-49.53,6.64-60.25,15.73a107.48,107.48,0,0,1-10.43,7.92C140.31,261.13,225.05,255,264.59,258.09Z"/><polygon class="cls-37" points="189.17 270.27 178.09 281.35 166.02 281.35 176.63 270.27 189.17 270.27"/><path class="cls-23" d="M186.86,271.6h-9.33a2.39,2.39,0,0,1,0-4.78h9.33a2.39,2.39,0,1,1,0,4.78Z"/><g class="cls-38"><path class="cls-25" d="M212.9,260.21l34.3-34.3,19.28,27.84a4.11,4.11,0,0,1-3.38,6.46Z"/><polygon class="cls-25" points="211.78 232.74 206.74 226.2 172.28 261 211.78 261 211.78 232.74"/></g><path class="cls-14" d="M212.6,270.74c-1.68,0-3-2-3-4.4V229.91c0-2.43,1.36-4.4,3-4.4s3,2,3,4.4v36.43C215.64,268.77,214.28,270.74,212.6,270.74Z"/><rect class="cls-36" x="212.3" y="230.47" width="0.6" height="73.05"/><polygon class="cls-39" points="229.91 270.27 218.83 281.35 206.76 281.35 217.37 270.27 229.91 270.27"/><path class="cls-23" d="M227.61,271.6h-9.33a2.39,2.39,0,1,1,0-4.78h9.33a2.39,2.39,0,0,1,0,4.78Z"/><path class="cls-27" d="M115.51,263.67h0a5.79,5.79,0,0,1,2.86,10.72L112.56,278C113,274.7,114.44,266.3,115.51,263.67Z"/><path class="cls-28" d="M318,277.23l1.63,4.22a4.67,4.67,0,0,0,4.41,3.14h4.84a4.67,4.67,0,0,0,4.67-4.67C333.54,275.69,315.7,271.17,318,277.23Z"/><path class="cls-29" d="M347.56,298h-9a2.09,2.09,0,0,1,0-4.19h9a2.09,2.09,0,1,1,0,4.19Z"/><path class="cls-29" d="M347.56,292.3h-9a2.09,2.09,0,0,1,0-4.19h9a2.09,2.09,0,1,1,0,4.19Z"/><path class="cls-28" d="M356.47,276.25c-2.95,1.09-5.44,3.12-5.44,4.68,0,2.58,2.09,5.07,4.67,5.07h4.61C359.35,280,357.25,277.29,356.47,276.25Z"/><g class="cls-40"><path class="cls-27" d="M318,277.23l1.63,4.22a4.67,4.67,0,0,0,4.41,3.14h4.84a4.67,4.67,0,0,0,4.67-4.67C333.54,275.69,315.7,271.17,318,277.23Z"/></g><path class="cls-21" d="M278.29,230.6c-3-.77-16.9-1.73-25.9-.6a70.19,70.19,0,0,1,15.92,15.9c2.15,3.06,4.11,6,6,8.31a11.12,11.12,0,0,0,8.62,4h23.6C299.93,253.47,295.61,238.46,278.29,230.6Z"/><g class="cls-41"><path class="cls-25" d="M274.86,260.21l34.3-34.3,19.28,27.84a4.11,4.11,0,0,1-3.38,6.46Z"/></g><path class="cls-14" d="M171.67,270.74c-1.68,0-3-1.69-3-3.79V235.58c0-2.09,1.36-3.79,3-3.79s3,1.69,3,3.79V267C174.71,269,173.35,270.74,171.67,270.74Z"/><path class="cls-19" d="M167.82,240.82a34.66,34.66,0,0,1,8.2-5c2.5-4.86-4.1-4.74-4.1-4.74l-4.68,2.53Z"/><path class="cls-23" d="M268.47,333c-11.32,0-19.13-9.2-17.41-20.52S263.38,292,274.71,292s19.14,9.21,17.41,20.53S279.79,333,268.47,333Z"/><path class="cls-23" d="M166.12,333c-11.32,0-19.15-9.2-17.45-20.52S161,292,172.29,292s19.15,9.21,17.44,20.53S177.43,333,166.12,333Z"/><path class="cls-32" d="M167.68,322.65a8.52,8.52,0,0,1-8.61-10.13,12.22,12.22,0,0,1,11.66-10.13,8.52,8.52,0,0,1,8.61,10.13A12.22,12.22,0,0,1,167.68,322.65Z"/><path class="cls-32" d="M270.05,322.65a8.5,8.5,0,0,1-8.6-10.13,12.24,12.24,0,0,1,11.67-10.13,8.5,8.5,0,0,1,8.59,10.13A12.24,12.24,0,0,1,270.05,322.65Z"/><path class="cls-33" d="M177.44,305.36,161,319.68a8.65,8.65,0,0,0,6.72,3,12.22,12.22,0,0,0,11.66-10.13A8.86,8.86,0,0,0,177.44,305.36Z"/><path class="cls-34" d="M185.9,298l-8.46,7.35a8.86,8.86,0,0,1,1.89,7.16,12.22,12.22,0,0,1-11.66,10.13,8.66,8.66,0,0,1-6.72-3L152.51,327a17.53,17.53,0,0,0,13.6,6c11.32,0,21.91-9.2,23.62-20.52A18,18,0,0,0,185.9,298Z"/><path class="cls-33" d="M279.84,305.36l-16.5,14.32a8.64,8.64,0,0,0,6.71,3,12.24,12.24,0,0,0,11.67-10.13A8.85,8.85,0,0,0,279.84,305.36Z"/><path class="cls-34" d="M288.31,298l-8.47,7.35a8.85,8.85,0,0,1,1.88,7.16,12.24,12.24,0,0,1-11.67,10.13,8.64,8.64,0,0,1-6.71-3L254.88,327a17.51,17.51,0,0,0,13.6,6c11.32,0,21.93-9.2,23.65-20.52A17.94,17.94,0,0,0,288.31,298Z"/><polygon class="cls-19" points="168.19 263.49 173.88 257.79 175.35 257.79 175.62 263.49 174.71 270.27 170.97 271.96 167.57 269.21 168.19 263.49"/></svg>