<svg id="Capa_1" data-name="Capa 1" xmlns="http://www.w3.org/2000/svg" xmlns:xlink="http://www.w3.org/1999/xlink" viewBox="0 0 400 400"><defs><style>.cls-1{fill:none;}.cls-2{clip-path:url(#clip-path);}.cls-3{clip-path:url(#clip-path-2);}.cls-4,.cls-42{fill:#21282d;}.cls-5{fill:#939393;}.cls-6{fill:#fff;}.cls-7{fill:#7e7e7e;}.cls-8{fill:#c9c9c9;}.cls-9{fill:#e6e6e6;}.cls-10{clip-path:url(#clip-path-3);}.cls-11{fill:#cfcfcf;}.cls-12{fill:url(#Degradado_sin_nombre_3);}.cls-13{fill:#434244;}.cls-14{fill:#decc5f;}.cls-15{fill:#cbccce;}.cls-16{clip-path:url(#clip-path-4);}.cls-17{fill:#f6e566;}.cls-18{clip-path:url(#clip-path-5);}.cls-19{fill:#b6b7ba;}.cls-20{fill:#acabb1;}.cls-21{fill:#3a3939;}.cls-22{fill:#a2a2a2;}.cls-23{fill:#6c9;}.cls-24{fill:#bfbfbf;}.cls-25{fill:url(#Degradado_sin_nombre_20);}.cls-26{clip-path:url(#clip-path-6);}.cls-27{fill:url(#Degradado_sin_nombre_3-2);}.cls-28{clip-path:url(#clip-path-7);}.cls-29{clip-path:url(#clip-path-8);}.cls-30{fill:#44403e;}.cls-31{fill:#cacaca;}.cls-32{fill:#6b4d3f;}.cls-33{fill:#f0caa3;}.cls-34{fill:#e79d86;}.cls-35{fill:#ecb69b;}.cls-36{fill:#7f4b28;}.cls-37{fill:#ecb592;}.cls-38{fill:#5b5552;}.cls-39{fill:#e4e4e4;}.cls-40{fill:#49807f;}.cls-41{clip-path:url(#clip-path-9);}.cls-42{opacity:0.5;}</style><clipPath id="clip-path"><rect class="cls-1" x="22.09" y="22.09" width="355.81" height="355.81"/></clipPath><clipPath id="clip-path-2"><circle class="cls-1" cx="172.76" cy="203.78" r="143.52"/></clipPath><clipPath id="clip-path-3"><path class="cls-1" d="M70.87,143.12c-9.33-6.89-16.5-34.07-52-34.07-56.23,0-60.38,8.1-73.45,19.17a131,131,0,0,1-12.71,9.65C-80.64,146.82,22.67,139.36,70.87,143.12Z"/></clipPath><linearGradient id="Degradado_sin_nombre_3" x1="14.48" y1="157.97" x2="14.48" y2="171.47" gradientUnits="userSpaceOnUse"><stop offset="0" stop-color="#adadad"/><stop offset="0.07" stop-color="#ababab" stop-opacity="0.91"/><stop offset="0.45" stop-color="#a2a2a1" stop-opacity="0.43"/><stop offset="0.73" stop-color="#9b9b9a" stop-opacity="0.12"/><stop offset="0.86" stop-color="#999998" stop-opacity="0"/></linearGradient><clipPath id="clip-path-4"><path class="cls-1" d="M144.57,176.86c-2.87-12.15-7.94-17.68-18.72-21.65-.25-.09-1.08-.19-1.08-.29v59.24l1.72,0C132.52,214.28,149,213.46,144.57,176.86Z"/></clipPath><clipPath id="clip-path-5"><path class="cls-1" d="M87.57,109.6c-3.7-.94-20.6-2.11-31.57-.73a85.57,85.57,0,0,1,19.4,19.38c2.62,3.73,5,7.26,7.35,10.13a13.55,13.55,0,0,0,10.51,4.93H122C113.94,137.49,108.68,119.19,87.57,109.6Z"/></clipPath><linearGradient id="Degradado_sin_nombre_20" x1="108.51" y1="253.11" x2="108.51" y2="268.79" gradientUnits="userSpaceOnUse"><stop offset="0" stop-color="#028d5e"/><stop offset="0.37" stop-color="#1d7a4c" stop-opacity="0.52"/><stop offset="0.7" stop-color="#326c3e" stop-opacity="0.15"/><stop offset="0.86" stop-color="#3a6639" stop-opacity="0"/></linearGradient><clipPath id="clip-path-6"><path class="cls-1" d="M231.6,235.89c-10.82-8-19.15-39.54-60.36-39.54-65.26,0-70.07,9.4-85.24,22.25a152.07,152.07,0,0,1-14.75,11.2C55.76,240.18,175.66,231.53,231.6,235.89Z"/></clipPath><linearGradient id="Degradado_sin_nombre_3-2" x1="166.15" y1="253.11" x2="166.15" y2="268.79" xlink:href="#Degradado_sin_nombre_3"/><clipPath id="clip-path-7"><path class="cls-1" d="M317.14,275c-3.33-14.1-9.36-20.52-21.87-25.12-.29-.11-1.39-.22-1.39-.33v68.75s2,0,2.14,0C303,318.47,322.23,317.52,317.14,275Z"/></clipPath><clipPath id="clip-path-8"><path class="cls-1" d="M251,197c-4.3-1.1-23.91-2.44-36.64-.85a99.31,99.31,0,0,1,22.52,22.49c3,4.33,5.81,8.43,8.53,11.75a15.73,15.73,0,0,0,12.2,5.72H291C281.6,229.35,275.49,208.11,251,197Z"/></clipPath><clipPath id="clip-path-9"><path class="cls-1" d="M167.37,347.3H479.9V145.4H157.42V328l65.91,10.14a140.75,140.75,0,0,1-56,9.16Z"/></clipPath></defs><title>servicios-empresas</title><g class="cls-2"><g class="cls-3"><circle class="cls-4" cx="172.76" cy="203.78" r="143.52"/><path class="cls-5" d="M21.45,102.66c9.22,0,45.57,0,46.78.07,43.09,2,48.65,39.29,61.52,42,5.24,1.09,30.38,7.29,39.77,10.75,8.53,3.14,13.31,7.26,16.36,14.87a38.68,38.68,0,0,1,2.54,11.32c2.55,32.12-12.48,32.87-18.25,32.79-1.44-.18-151.6-.44-151.6-.44-28.73.79-48.28-2.55-61.85-3.43-34.08-2.2-30.73-22.28-27.93-42.44,0-.18.08-.44.08-.62,2-14,3-29.58,23.46-29.58a32.54,32.54,0,0,0,10-2A47.11,47.11,0,0,0-23,127.28C-7.47,114.16,1.75,107.6,21.45,102.66Z"/><path class="cls-6" d="M21.14,102.65c46.48,0,52,39.3,65.22,42.08,5.24,1.09,30.38,7.29,39.77,10.75,10.77,4,15.56,9.5,18.44,21.65,4.38,36.6-11.77,37.42-17.8,37.33-1.44-.18-151.6-.44-151.6-.44-28.73.79-48.28-2.55-61.85-3.43-29.4-1.9-30.94-17.11-29-34.19.31-2.72,2.72-21.41,4.93-26.71,2.84-6.81,8.2-11.74,19.69-11.74a32.54,32.54,0,0,0,10-2,47.11,47.11,0,0,0,14.68-8.7C-50.86,114.16-45.48,102.65,21.14,102.65Z"/><path class="cls-7" d="M127.56,197.26l-1.22,16.79c23.28.11,42.63.53,43.25.59.12,0,.3.11.42.11,9.79,0,15.81-5.87,17.83-16.71l.11-.79Z"/><path class="cls-8" d="M-113.44,197.26l.25.92c3.78,7.39,12.17,11.31,27.2,12.25,3.45.22,7.22.67,11.58,1.07,12.78,1.18,28.69,2.71,50,2.14,1.49,0,149,.64,150.79.81l.34,0c12.17,0,16.36-9.08,17.74-16.39l.07-.82Z"/><path class="cls-9" d="M70.87,143.12c-9.33-6.89-16.5-34.07-52-34.07-56.23,0-60.38,8.1-73.45,19.17a131,131,0,0,1-12.71,9.65C-80.64,146.82,22.67,139.36,70.87,143.12Z"/><g class="cls-10"><path class="cls-11" d="M7.85,145.71,49.67,103.9l23.5,33.94A5,5,0,0,1,69,145.71Z"/><polygon class="cls-11" points="6.41 112.22 0.3 104.18 -41.67 146.53 6.41 146.53 6.41 112.22"/></g><path class="cls-6" d="M7.49,158.54c-2,0-3.7-2.4-3.7-5.36V108.77c0-3,1.66-5.36,3.7-5.36s3.7,2.4,3.7,5.36v44.42C11.2,156.14,9.54,158.54,7.49,158.54Z"/><rect class="cls-8" x="7.12" y="109.45" width="0.73" height="89.05"/><polygon class="cls-12" points="28.59 157.97 15.09 171.47 0.37 171.47 13.3 157.97 28.59 157.97"/><path class="cls-13" d="M25.78,159.59H14.4a2.92,2.92,0,0,1,0-5.83H25.78a2.92,2.92,0,0,1,0,5.83Z"/><path class="cls-14" d="M136,166.45l2,5.15a5.69,5.69,0,0,0,5.38,3.83h5.9a5.69,5.69,0,0,0,5.69-5.69C154.92,164.58,133.17,159.06,136,166.45Z"/><path class="cls-15" d="M172,191.82H161.08a2.55,2.55,0,0,1,0-5.1H172a2.55,2.55,0,0,1,0,5.1Z"/><path class="cls-15" d="M172,184.82H161.08a2.55,2.55,0,0,1,0-5.1H172a2.55,2.55,0,0,1,0,5.1Z"/><path class="cls-14" d="M182.88,165.32c-3.59,1.33-6.64,3.83-6.64,5.74,0,3.14,2.55,6.22,5.69,6.22h5.62C186.39,169.59,183.82,166.59,182.88,165.32Z"/><g class="cls-16"><path class="cls-17" d="M136,166.45l2,5.15a5.69,5.69,0,0,0,5.38,3.83h5.9a5.69,5.69,0,0,0,5.69-5.69C154.92,164.58,133.17,159.06,136,166.45Z"/></g><path class="cls-9" d="M87.57,109.6c-3.7-.94-20.6-2.11-31.57-.73a85.57,85.57,0,0,1,19.4,19.38c2.62,3.73,5,7.26,7.35,10.13a13.55,13.55,0,0,0,10.51,4.93H122C113.94,137.49,108.68,119.19,87.57,109.6Z"/><g class="cls-18"><path class="cls-11" d="M83.39,145.71,125.2,103.9l23.5,33.94a5,5,0,0,1-4.12,7.87Z"/></g><path class="cls-13" d="M75.6,234.48c-13.8,0-23.32-11.22-21.23-25s15-25,28.83-25,23.33,11.23,21.23,25S89.4,234.48,75.6,234.48Z"/><path class="cls-19" d="M77.52,221.82c-6.81,0-11.51-5.54-10.48-12.35a14.93,14.93,0,0,1,14.23-12.35c6.81,0,11.51,5.54,10.48,12.35A14.92,14.92,0,0,1,77.52,221.82Z"/><path class="cls-20" d="M89.46,200.74,69.34,218.2a10.53,10.53,0,0,0,8.18,3.62,14.92,14.92,0,0,0,14.23-12.35A10.79,10.79,0,0,0,89.46,200.74Z"/><path class="cls-21" d="M99.78,191.78l-10.32,9a10.79,10.79,0,0,1,2.3,8.73,14.92,14.92,0,0,1-14.23,12.35,10.53,10.53,0,0,1-8.18-3.62l-10.32,9a21.34,21.34,0,0,0,16.57,7.33c13.8,0,26.73-11.22,28.83-25A21.87,21.87,0,0,0,99.78,191.78Z"/><path class="cls-22" d="M174.24,188.92c10.71,0,52.89,0,54.29.08,50,2.35,56.46,45.61,71.4,48.74,6.09,1.26,35.26,8.46,46.16,12.47,9.9,3.64,15.45,8.42,19,17.26A44.9,44.9,0,0,1,368,280.62c3,37.28-14.49,38.14-21.18,38.05-1.67-.2-176-.51-176-.51-33.35.92-56-3-71.79-4-39.55-2.55-35.66-25.85-32.42-49.26,0-.2.09-.51.09-.72C69.09,248,70.29,229.87,94,229.87a37.76,37.76,0,0,0,11.65-2.28,54.68,54.68,0,0,0,17-10.09C140.67,202.27,151.38,194.66,174.24,188.92Z"/><path class="cls-6" d="M173.89,188.91c53.95,0,60.34,45.62,75.7,48.84,6.09,1.26,35.26,8.46,46.16,12.47,12.5,4.6,18.06,11,21.4,25.12,5.09,42.48-13.66,43.43-20.66,43.33-1.67-.2-176-.51-176-.51-33.35.92-56-3-71.79-4-34.13-2.2-35.91-19.85-33.68-39.69.36-3.15,3.16-24.85,5.73-31,3.3-7.9,9.51-13.62,22.86-13.62a37.76,37.76,0,0,0,11.65-2.28,54.68,54.68,0,0,0,17-10.09C90.32,202.27,96.56,188.91,173.89,188.91Z"/><path class="cls-7" d="M297.4,298.73,296,318.21c27,.13,49.47.62,50.19.69.14,0,.35.13.49.13,11.36,0,18.35-6.81,20.7-19.39l.12-.91Z"/><path class="cls-23" d="M85.41,235,20.78,299.66H17.69s-3.47-4.72-3.27-16.18A102.54,102.54,0,0,1,16.5,264l35.44-35.44a47.9,47.9,0,0,0,14.76-6.8c6.82-4.68,16.54-14.74,22.84-18.66,17.85-11.7,32.75-11.29,38-11.84C116.48,202.31,85.41,235,85.41,235Z"/><polygon class="cls-23" points="103.26 235.46 39.02 299.71 77.91 299.71 142.37 235.24 103.26 235.46"/><path class="cls-24" d="M17.69,298.73l.29,1.06c4.39,8.57,14.13,13.13,31.57,14.22,4,.25,8.37.78,13.44,1.25,14.84,1.37,33.3,3.14,58,2.48,1.73,0,172.92.74,175,.94l.4,0c14.12,0,19-10.54,20.58-19l.09-1Z"/><path class="cls-9" d="M231.6,235.89c-10.82-8-19.15-39.54-60.36-39.54-65.26,0-70.07,9.4-85.24,22.25a152.07,152.07,0,0,1-14.75,11.2C55.76,240.18,175.66,231.53,231.6,235.89Z"/><polygon class="cls-25" points="124.89 253.11 109.22 268.79 92.13 268.79 107.15 253.11 124.89 253.11"/><path class="cls-13" d="M121.63,255H108.42a3.38,3.38,0,1,1,0-6.77h13.21a3.38,3.38,0,1,1,0,6.77Z"/><g class="cls-26"><path class="cls-11" d="M158.46,238.89,207,190.36l27.27,39.4a5.82,5.82,0,0,1-4.79,9.13Z"/><polygon class="cls-11" points="157.06 200.02 149.84 190.92 100.99 240.31 157.06 240.31 157.06 200.02"/></g><path class="cls-6" d="M158,253.78c-2.38,0-4.3-2.78-4.3-6.22V196c0-3.44,1.92-6.22,4.3-6.22s4.3,2.78,4.3,6.22v51.55C162.34,251,160.42,253.78,158,253.78Z"/><rect class="cls-24" x="157.62" y="196.81" width="0.85" height="103.35"/><polygon class="cls-27" points="182.53 253.11 166.86 268.79 149.78 268.79 164.79 253.11 182.53 253.11"/><path class="cls-13" d="M179.27,255H166.06a3.38,3.38,0,0,1,0-6.77h13.21a3.38,3.38,0,0,1,0,6.77Z"/><path class="cls-17" d="M20.67,243.79h0a8.19,8.19,0,0,1,4,15.16L16.5,264C17.1,259.38,19.15,247.51,20.67,243.79Z"/><path class="cls-14" d="M307.15,263l2.31,6a6.61,6.61,0,0,0,6.24,4.45h6.85a6.61,6.61,0,0,0,6.61-6.61C329.15,260.79,303.91,254.39,307.15,263Z"/><path class="cls-15" d="M349,292.4H336.3a3,3,0,1,1,0-5.92H349a3,3,0,1,1,0,5.92Z"/><path class="cls-15" d="M349,284.29H336.3a3,3,0,1,1,0-5.92H349a3,3,0,1,1,0,5.92Z"/><path class="cls-14" d="M361.6,261.72c-4.17,1.55-7.7,4.48-7.7,6.69,0,3.65,3,7.25,6.61,7.25H367C365.67,266.44,362.7,263.19,361.6,261.72Z"/><g class="cls-28"><path class="cls-17" d="M307.15,263l2.31,6a6.61,6.61,0,0,0,6.24,4.45h6.85a6.61,6.61,0,0,0,6.61-6.61C329.15,260.79,303.91,254.39,307.15,263Z"/></g><path class="cls-9" d="M251,197c-4.3-1.1-23.91-2.44-36.64-.85a99.31,99.31,0,0,1,22.52,22.49c3,4.33,5.81,8.43,8.53,11.75a15.73,15.73,0,0,0,12.2,5.72H291C281.6,229.35,275.49,208.11,251,197Z"/><g class="cls-29"><path class="cls-11" d="M246.13,238.89l48.53-48.53,27.27,39.4a5.82,5.82,0,0,1-4.79,9.13Z"/></g><path class="cls-6" d="M100.13,253.78c-2.38,0-4.3-2.4-4.3-5.36V204c0-3,1.92-5.36,4.3-5.36s4.3,2.4,4.3,5.36v44.4C104.43,251.39,102.51,253.78,100.13,253.78Z"/><path class="cls-23" d="M94.68,211.45s6.1-5.07,11.6-7.1c3.53-6.88-5.8-6.7-5.8-6.7l-6.62,3.58Z"/><path class="cls-13" d="M237.09,341.92c-16,0-27.07-13-24.64-29s17.44-29,33.46-29,27.07,13,24.64,29S253.11,341.92,237.09,341.92Z"/><path class="cls-13" d="M92.27,341.92c-16,0-27.09-13-24.69-29s17.4-29,33.42-29,27.09,13,24.68,29S108.29,341.92,92.27,341.92Z"/><path class="cls-19" d="M94.48,327.22c-7.9,0-13.37-6.43-12.18-14.33s8.59-14.34,16.49-14.34S112.16,305,111,312.89,102.39,327.22,94.48,327.22Z"/><path class="cls-19" d="M239.33,327.22c-7.9,0-13.36-6.43-12.16-14.33s8.61-14.34,16.52-14.34S257,305,255.84,312.89,247.23,327.22,239.33,327.22Z"/><path class="cls-20" d="M108.29,302.76,85,323a12.25,12.25,0,0,0,9.5,4.2c7.9,0,15.3-6.43,16.49-14.33A12.54,12.54,0,0,0,108.29,302.76Z"/><path class="cls-21" d="M120.26,292.36l-12,10.4A12.54,12.54,0,0,1,111,312.89c-1.19,7.9-8.59,14.33-16.49,14.33A12.25,12.25,0,0,1,85,323L73,333.41a24.81,24.81,0,0,0,19.25,8.51c16,0,31-13,33.41-29A25.41,25.41,0,0,0,120.26,292.36Z"/><path class="cls-20" d="M253.17,302.76,229.83,323a12.23,12.23,0,0,0,9.5,4.2c7.9,0,15.31-6.43,16.51-14.33A12.53,12.53,0,0,0,253.17,302.76Z"/><path class="cls-21" d="M265.16,292.36l-12,10.4a12.53,12.53,0,0,1,2.66,10.13c-1.2,7.9-8.61,14.33-16.51,14.33a12.23,12.23,0,0,1-9.5-4.2l-12,10.39a24.77,24.77,0,0,0,19.24,8.51c16,0,31-13,33.46-29A25.38,25.38,0,0,0,265.16,292.36Z"/><polygon class="cls-23" points="95.21 243.52 103.26 235.46 105.33 235.46 105.71 243.52 104.43 253.11 99.14 255.51 94.34 251.61 95.21 243.52"/></g><path class="cls-30" d="M235.15,132.07c3.17-2.69,6-5.06,15.84-5.06s12.17,24.58-1.12,35.47-26.37,30.74-30.5,55.57a255.12,255.12,0,0,0-3.72,43.15H199.1s2.15-43.32,7.84-72.24C212.17,162.39,219.71,145.16,235.15,132.07Z"/><polygon class="cls-31" points="264.06 117.97 265.13 115.55 272.19 115.55 272.19 127.75 262.87 127.75 264.06 117.97"/><circle class="cls-32" cx="255" cy="82.47" r="2.04" transform="translate(-0.24 0.75) rotate(-0.17)"/><path class="cls-33" d="M255.58,102.85s-3.56-30.1-.82-37.18,7.64-16.16,25.88-14.17,19.82,14.56,20.09,22.72c.07,2.29-4.47,19.29-8,34.71,1.06,14.71,2.48,32.12,2.48,32.12l-29.54,3.89V111.17l-3.76,0a5.36,5.36,0,0,1-3.77-1.66C257,108.4,255.93,106.29,255.58,102.85Z"/><polygon class="cls-34" points="259.79 79.25 255.05 98.3 257.83 98.3 262.86 79.23 259.79 79.25"/><polygon class="cls-35" points="262.86 79.23 257.83 98.3 262.37 98.28 262.86 79.23"/><circle class="cls-32" cx="275.58" cy="82.41" r="2.04" transform="translate(-0.24 0.81) rotate(-0.17)"/><path class="cls-36" d="M301.34,72.69c-.28-8.66-2.62-22.33-22-24.44-16-1.74-22.3,4.43-25.66,10.9.07,0,10.68,3.31,25.27.47a34.33,34.33,0,0,0,9.1,13.87l0,11.24,9.16,0L291.62,107h2.6C297.43,92.67,301.49,77.29,301.34,72.69Z"/><polygon class="cls-37" points="265.53 111.23 272.86 111.2 265.68 122.08 265.53 111.23"/><path class="cls-38" d="M315.07,260.49H245l-4.45-123.86a9.93,9.93,0,0,1,9.73-10.31h12l9.95,5.74,19.28-5.74H309a9.93,9.93,0,0,1,9.73,10.24Z"/><path class="cls-39" d="M260.72,175.14l5.12,18.39s10.36-36.71,18.53-47c4.38-5.51,10.67-13.77,15.56-20.23h-8.49l-19.28,5.74-9.95-5.74h-6.73c-.65,7.18-1.25,17-.26,23.33C256.89,160.41,260.72,175.14,260.72,175.14Z"/><path class="cls-35" d="M291.73,78.85l0,13.94s7.51-4.71,6.9-9.86S291.73,78.85,291.73,78.85Z"/><path class="cls-23" d="M269.72,138,262.9,181.9a1.55,1.55,0,0,0,.2,1.09l2.44,4.65a1.55,1.55,0,0,0,2.42.29l4.23-11.47c.31-.31,0-5.28,0-5.72l4.62-4.31L273,137.11Z"/><path class="cls-40" d="M269.72,138l-.37,2.39a.68.68,0,0,0,.49.34l2,.15a1.9,1.9,0,0,0,1.28-.35l.24-.27-.4-3.11Z"/><polygon class="cls-30" points="271.06 177.26 265.74 187.76 265.74 196.63 273.29 176.72 271.06 177.26"/><polygon class="cls-30" points="262.4 177.26 265.74 187.76 265.74 196.63 258.78 172.71 262.4 177.26"/><path class="cls-30" d="M265.84,188S277,132.87,297,126.44l5.86.13-19,28.68,3,1Z"/><path class="cls-30" d="M265.68,187.65s-10-39.1-5.25-61.34H252s-3,20.7,3.17,29.8l-3.62.71Z"/><path class="cls-31" d="M283.19,130.38,271,134.21l5.35-9.17a8.86,8.86,0,0,1,3.75-3.49l3.75-1.84Z"/><path class="cls-6" d="M298.91,124.41l-3.38-8.83a1,1,0,0,0-1.34-.55L283,120.11h0a13.13,13.13,0,0,0-7.89,7.13l2.56-2.23.14.11a5.33,5.33,0,0,0-.06.81c0,3.54,0,8.92-.08,11.77a.93.93,0,0,0,1.44.8l18.7-10.84A2.65,2.65,0,0,0,298.91,124.41Z"/><polygon class="cls-31" points="273.26 134.21 263.11 128.88 262.72 121.35 266.46 123.19 269.19 127.24 273.26 134.21"/><path class="cls-6" d="M265,138a.87.87,0,0,0,1.52.16.92.92,0,0,0,.13-.5c-.08-2.85-.08-8.23-.08-11.77a5.33,5.33,0,0,0-.06-.81l.14-.11,2.56,2.23c-5.39-7.09-4.06-11.49-4.06-11.49a1,1,0,0,0-1.34.55l-3.38,8.83-.21.44a2.27,2.27,0,0,0,0,1.9Z"/><path class="cls-23" d="M268,129.9h8.46c1.07,0,1.61,1.74.87,2.82l-4.57,6.69a1.09,1.09,0,0,1-.87.53h-1.21a1.27,1.27,0,0,1-1.06-.91l-2.69-6.64C266.45,131.26,267,129.9,268,129.9Z"/><path class="cls-30" d="M323.87,131.37c-3.17-2.69-6-5.06-15.84-5.06s-12.17,24.58,1.12,35.47,26.37,30.74,30.5,55.57a255.12,255.12,0,0,1,3.72,43.15h16.55s-2.15-43.32-7.84-72.24C346.85,161.68,339.31,144.45,323.87,131.37Z"/><g class="cls-41"><ellipse class="cls-42" cx="191.12" cy="321.71" rx="156.99" ry="25.11"/><path class="cls-22" d="M174.24,188.92c10.71,0,52.89,0,54.29.08,50,2.35,56.46,45.61,71.4,48.74,6.09,1.26,35.26,8.46,46.16,12.47,9.9,3.64,15.45,8.42,19,17.26A44.9,44.9,0,0,1,368,280.62c3,37.28-14.49,38.14-21.18,38.05-1.67-.2-176-.51-176-.51-33.35.92-56-3-71.79-4-39.55-2.55-35.66-25.85-32.42-49.26,0-.2.09-.51.09-.72C69.09,248,70.29,229.87,94,229.87a37.76,37.76,0,0,0,11.65-2.28,54.68,54.68,0,0,0,17-10.09C140.67,202.27,151.38,194.66,174.24,188.92Z"/><path class="cls-6" d="M173.89,188.91c53.95,0,60.34,45.62,75.7,48.84,6.09,1.26,35.26,8.46,46.16,12.47,12.5,4.6,18.06,11,21.4,25.12,5.09,42.48-13.66,43.43-20.66,43.33-1.67-.2-176-.51-176-.51-33.35.92-56-3-71.79-4-34.13-2.2-35.91-19.85-33.68-39.69.36-3.15,3.16-24.85,5.73-31,3.3-7.9,9.51-13.62,22.86-13.62a37.76,37.76,0,0,0,11.65-2.28,54.68,54.68,0,0,0,17-10.09C90.32,202.27,96.56,188.91,173.89,188.91Z"/><path class="cls-7" d="M297.4,298.73,296,318.21c27,.13,49.47.62,50.19.69.14,0,.35.13.49.13,11.36,0,18.35-6.81,20.7-19.39l.12-.91Z"/><path class="cls-23" d="M85.41,235,20.78,299.66H17.69s-3.47-4.72-3.27-16.18A102.54,102.54,0,0,1,16.5,264l35.44-35.44a47.9,47.9,0,0,0,14.76-6.8c6.82-4.68,16.54-14.74,22.84-18.66,17.85-11.7,32.75-11.29,38-11.84C116.48,202.31,85.41,235,85.41,235Z"/><polygon class="cls-23" points="103.26 235.46 39.02 299.71 77.91 299.71 142.37 235.24 103.26 235.46"/><path class="cls-24" d="M17.69,298.73l.29,1.06c4.39,8.57,14.13,13.13,31.57,14.22,4,.25,8.37.78,13.44,1.25,14.84,1.37,33.3,3.14,58,2.48,1.73,0,172.92.74,175,.94l.4,0c14.12,0,19-10.54,20.58-19l.09-1Z"/><path class="cls-9" d="M231.6,235.89c-10.82-8-19.15-39.54-60.36-39.54-65.26,0-70.07,9.4-85.24,22.25a152.07,152.07,0,0,1-14.75,11.2C55.76,240.18,175.66,231.53,231.6,235.89Z"/><polygon class="cls-25" points="124.89 253.11 109.22 268.79 92.13 268.79 107.15 253.11 124.89 253.11"/><path class="cls-13" d="M121.63,255H108.42a3.38,3.38,0,1,1,0-6.77h13.21a3.38,3.38,0,1,1,0,6.77Z"/><g class="cls-26"><path class="cls-11" d="M158.46,238.89,207,190.36l27.27,39.4a5.82,5.82,0,0,1-4.79,9.13Z"/><polygon class="cls-11" points="157.06 200.02 149.84 190.92 100.99 240.31 157.06 240.31 157.06 200.02"/></g><path class="cls-6" d="M158,253.78c-2.38,0-4.3-2.78-4.3-6.22V196c0-3.44,1.92-6.22,4.3-6.22s4.3,2.78,4.3,6.22v51.55C162.34,251,160.42,253.78,158,253.78Z"/><rect class="cls-24" x="157.62" y="196.81" width="0.85" height="103.35"/><polygon class="cls-27" points="182.53 253.11 166.86 268.79 149.78 268.79 164.79 253.11 182.53 253.11"/><path class="cls-13" d="M179.27,255H166.06a3.38,3.38,0,0,1,0-6.77h13.21a3.38,3.38,0,0,1,0,6.77Z"/><path class="cls-17" d="M20.67,243.79h0a8.19,8.19,0,0,1,4,15.16L16.5,264C17.1,259.38,19.15,247.51,20.67,243.79Z"/><path class="cls-14" d="M307.15,263l2.31,6a6.61,6.61,0,0,0,6.24,4.45h6.85a6.61,6.61,0,0,0,6.61-6.61C329.15,260.79,303.91,254.39,307.15,263Z"/><path class="cls-15" d="M349,292.4H336.3a3,3,0,1,1,0-5.92H349a3,3,0,1,1,0,5.92Z"/><path class="cls-15" d="M349,284.29H336.3a3,3,0,1,1,0-5.92H349a3,3,0,1,1,0,5.92Z"/><path class="cls-14" d="M361.6,261.72c-4.17,1.55-7.7,4.48-7.7,6.69,0,3.65,3,7.25,6.61,7.25H367C365.67,266.44,362.7,263.19,361.6,261.72Z"/><g class="cls-28"><path class="cls-17" d="M307.15,263l2.31,6a6.61,6.61,0,0,0,6.24,4.45h6.85a6.61,6.61,0,0,0,6.61-6.61C329.15,260.79,303.91,254.39,307.15,263Z"/></g><path class="cls-9" d="M251,197c-4.3-1.1-23.91-2.44-36.64-.85a99.31,99.31,0,0,1,22.52,22.49c3,4.33,5.81,8.43,8.53,11.75a15.73,15.73,0,0,0,12.2,5.72H291C281.6,229.35,275.49,208.11,251,197Z"/><g class="cls-29"><path class="cls-11" d="M246.13,238.89l48.53-48.53,27.27,39.4a5.82,5.82,0,0,1-4.79,9.13Z"/></g><path class="cls-6" d="M100.13,253.78c-2.38,0-4.3-2.4-4.3-5.36V204c0-3,1.92-5.36,4.3-5.36s4.3,2.4,4.3,5.36v44.4C104.43,251.39,102.51,253.78,100.13,253.78Z"/><path class="cls-23" d="M94.68,211.45s6.1-5.07,11.6-7.1c3.53-6.88-5.8-6.7-5.8-6.7l-6.62,3.58Z"/><path class="cls-13" d="M237.09,341.92c-16,0-27.07-13-24.64-29s17.44-29,33.46-29,27.07,13,24.64,29S253.11,341.92,237.09,341.92Z"/><path class="cls-13" d="M92.27,341.92c-16,0-27.09-13-24.69-29s17.4-29,33.42-29,27.09,13,24.68,29S108.29,341.92,92.27,341.92Z"/><path class="cls-19" d="M94.48,327.22c-7.9,0-13.37-6.43-12.18-14.33s8.59-14.34,16.49-14.34S112.16,305,111,312.89,102.39,327.22,94.48,327.22Z"/><path class="cls-19" d="M239.33,327.22c-7.9,0-13.36-6.43-12.16-14.33s8.61-14.34,16.52-14.34S257,305,255.84,312.89,247.23,327.22,239.33,327.22Z"/><path class="cls-20" d="M108.29,302.76,85,323a12.25,12.25,0,0,0,9.5,4.2c7.9,0,15.3-6.43,16.49-14.33A12.54,12.54,0,0,0,108.29,302.76Z"/><path class="cls-21" d="M120.26,292.36l-12,10.4A12.54,12.54,0,0,1,111,312.89c-1.19,7.9-8.59,14.33-16.49,14.33A12.25,12.25,0,0,1,85,323L73,333.41a24.81,24.81,0,0,0,19.25,8.51c16,0,31-13,33.41-29A25.41,25.41,0,0,0,120.26,292.36Z"/><path class="cls-20" d="M253.17,302.76,229.83,323a12.23,12.23,0,0,0,9.5,4.2c7.9,0,15.31-6.43,16.51-14.33A12.53,12.53,0,0,0,253.17,302.76Z"/><path class="cls-21" d="M265.16,292.36l-12,10.4a12.53,12.53,0,0,1,2.66,10.13c-1.2,7.9-8.61,14.33-16.51,14.33a12.23,12.23,0,0,1-9.5-4.2l-12,10.39a24.77,24.77,0,0,0,19.24,8.51c16,0,31-13,33.46-29A25.38,25.38,0,0,0,265.16,292.36Z"/><polygon class="cls-23" points="95.21 243.52 103.26 235.46 105.33 235.46 105.71 243.52 104.43 253.11 99.14 255.51 94.34 251.61 95.21 243.52"/></g></g></svg>