<svg width="80" height="80" viewBox="0 0 80 80" fill="none" xmlns="http://www.w3.org/2000/svg">
<path d="M54.5687 7.10268C54.404 6.99972 54.2206 6.93022 54.029 6.89814C53.8374 6.86606 53.6414 6.87203 53.4521 6.91571C53.2628 6.95939 53.084 7.03993 52.9258 7.15272C52.7676 7.26551 52.6333 7.40836 52.5303 7.57309C52.4273 7.73782 52.3578 7.92122 52.3257 8.11282C52.2937 8.30441 52.2996 8.50045 52.3433 8.68974C52.387 8.87902 52.4675 9.05785 52.5803 9.21601C52.6931 9.37418 52.836 9.50857 53.0007 9.61153C56.4072 11.6947 59.2259 14.6127 61.19 18.0893C63.154 21.5658 64.1986 25.4861 64.2248 29.479C64.2509 33.4719 63.2578 37.4055 61.3395 40.9075C59.4212 44.4095 56.641 47.3642 53.262 49.4919C51.4194 50.6739 49.875 52.266 48.7496 54.1437C48.5579 54.4573 48.4011 54.7535 48.2443 55.0845H46.3975L50.9797 32.7313L52.0076 27.7485C52.0862 27.3672 52.0101 26.9704 51.7961 26.6453C51.582 26.3202 51.2476 26.0935 50.8664 26.0149C50.4852 25.9364 50.0884 26.0125 49.7633 26.2265C49.4382 26.4405 49.2114 26.7749 49.1329 27.1561L48.3489 31.0065C46.8307 31.101 45.3617 31.5807 44.0803 32.4003C43.1076 33.0226 41.977 33.3533 40.8223 33.3533C39.6676 33.3533 38.537 33.0226 37.5643 32.4003C36.2832 31.58 34.814 31.1003 33.2958 31.0065L32.5117 27.1561C32.4332 26.7749 32.2064 26.4405 31.8813 26.2265C31.5562 26.0125 31.1594 25.9364 30.7782 26.0149C30.397 26.0935 30.0626 26.3202 29.8486 26.6453C29.6346 26.9704 29.5585 27.3672 29.637 27.7485L30.6649 32.7313L35.2471 55.0845H33.0344L32.8253 54.6489C31.6787 52.4463 29.9797 50.5793 27.8947 49.2305C24.4943 47.0142 21.7316 43.9484 19.8798 40.3364C18.028 36.7245 17.1514 32.6917 17.3367 28.637C17.5329 24.6874 18.7131 20.8495 20.77 17.4721C22.8269 14.0946 25.6952 11.2848 29.1143 9.29793C29.2814 9.20069 29.4276 9.0715 29.5447 8.91775C29.6618 8.764 29.7474 8.58869 29.7968 8.40183C29.8461 8.21496 29.8582 8.02022 29.8323 7.8287C29.8063 7.63718 29.743 7.45264 29.6457 7.28562C29.5485 7.11859 29.4193 6.97236 29.2655 6.85526C29.1118 6.73817 28.9365 6.6525 28.7496 6.60316C28.5628 6.55381 28.368 6.54176 28.1765 6.56768C27.985 6.5936 27.8004 6.65699 27.6334 6.75423C23.7918 8.99642 20.5715 12.1631 18.2651 15.9665C15.9587 19.77 14.6394 24.0895 14.4271 28.5325C14.2196 33.095 15.2067 37.6326 17.2906 41.6966C19.3746 45.7606 22.4833 49.2103 26.3093 51.7045C27.9671 52.7748 29.318 54.2578 30.2294 56.0079C31.0078 57.5474 31.4136 59.2482 31.4141 60.9733V66.5137C31.4144 67.7456 31.7566 68.9532 32.4025 70.0022C33.0485 71.0511 33.9729 71.9002 35.0729 72.4548C35.2556 73.7713 35.9083 74.9772 36.9106 75.85C37.9129 76.7228 39.1971 77.2035 40.5261 77.2035C41.8552 77.2035 43.1394 76.7228 44.1417 75.85C45.144 74.9772 45.7967 73.7713 45.9794 72.4548C47.0793 71.9002 48.0038 71.0511 48.6497 70.0022C49.2957 68.9532 49.6379 67.7456 49.6381 66.5137V61.5657C49.6323 59.4919 50.1925 57.4558 51.2584 55.6769C52.1577 54.1825 53.3924 52.9179 54.8649 51.9833C58.667 49.5883 61.7951 46.263 63.9535 42.3218C66.1119 38.3806 67.2291 33.954 67.1994 29.4606C67.1698 24.9672 65.9942 20.5557 63.784 16.6434C61.5738 12.731 58.4021 9.44725 54.5687 7.10268ZM33.8358 34.0554C34.5659 34.1988 35.263 34.4765 35.8917 34.8743C37.3417 35.8063 39.029 36.3018 40.7526 36.3018C42.4763 36.3018 44.1636 35.8063 45.6135 34.8743C46.2739 34.4642 47.0076 34.1861 47.7739 34.0554L43.4009 55.1019H38.1741L33.8358 34.0554ZM40.4564 74.2842C40.0425 74.2852 39.6345 74.1859 39.2673 73.9948C38.9002 73.8036 38.5848 73.5263 38.3483 73.1866H42.5471C42.3192 73.5144 42.0177 73.7844 41.6668 73.975C41.3159 74.1656 40.9252 74.2715 40.5261 74.2842H40.4564ZM42.913 70.2422H38.0695C37.4978 70.2388 36.9347 70.1034 36.4239 69.8465C35.9132 69.5896 35.4687 69.2182 35.1251 68.7612L46.4847 67.681C46.2425 68.4242 45.7718 69.0719 45.1399 69.5318C44.5079 69.9916 43.7469 70.2403 42.9653 70.2422H42.913ZM46.6415 64.7018L34.3063 65.8865V63.517L46.6415 62.3323V64.7018ZM46.8157 59.3705L34.2888 60.5726C34.2616 59.7227 34.1566 58.8771 33.9752 58.0464H47.0944C47.0131 58.4761 46.9376 58.9175 46.8679 59.3705H46.8157Z" fill="#999999"/>
<path d="M40.8051 30.2573C41.794 30.2573 42.7608 29.964 43.5831 29.4146C44.4054 28.8651 45.0463 28.0842 45.4247 27.1705C45.8032 26.2568 45.9022 25.2514 45.7093 24.2815C45.5163 23.3115 45.0401 22.4205 44.3408 21.7212C43.6415 21.0219 42.7505 20.5457 41.7806 20.3528C40.8106 20.1598 39.8052 20.2589 38.8915 20.6373C37.9779 21.0158 37.1969 21.6567 36.6475 22.479C36.098 23.3013 35.8048 24.268 35.8048 25.257C35.8048 26.5831 36.3316 27.855 37.2693 28.7927C38.2071 29.7304 39.4789 30.2573 40.8051 30.2573ZM40.8051 23.2882C41.2117 23.2882 41.6092 23.4088 41.9472 23.6347C42.2853 23.8606 42.5488 24.1817 42.7044 24.5573C42.86 24.933 42.9008 25.3464 42.8214 25.7452C42.7421 26.144 42.5463 26.5103 42.2588 26.7978C41.9713 27.0853 41.6049 27.2811 41.2061 27.3604C40.8073 27.4398 40.394 27.3991 40.0183 27.2435C39.6427 27.0879 39.3216 26.8243 39.0957 26.4863C38.8698 26.1482 38.7492 25.7507 38.7492 25.3441C38.7398 25.0683 38.7861 24.7934 38.8852 24.5359C38.9843 24.2784 39.1343 24.0435 39.3261 23.8451C39.518 23.6468 39.7478 23.4891 40.0019 23.3814C40.256 23.2738 40.5291 23.2184 40.8051 23.2185V23.2882Z" fill="#666666"/>
<path d="M34.0972 7.12012C34.9343 7.12012 35.6129 6.44149 35.6129 5.60436C35.6129 4.76722 34.9343 4.08859 34.0972 4.08859C33.26 4.08859 32.5814 4.76722 32.5814 5.60436C32.5814 6.44149 33.26 7.12012 34.0972 7.12012Z" fill="#999999"/>
<path d="M40.9093 6.23154C41.7464 6.23154 42.425 5.55291 42.425 4.71578C42.425 3.87864 41.7464 3.20001 40.9093 3.20001C40.0721 3.20001 39.3935 3.87864 39.3935 4.71578C39.3935 5.55291 40.0721 6.23154 40.9093 6.23154Z" fill="#999999"/>
<path d="M47.6869 7.12012C48.524 7.12012 49.2027 6.44149 49.2027 5.60436C49.2027 4.76722 48.524 4.08859 47.6869 4.08859C46.8498 4.08859 46.1711 4.76722 46.1711 5.60436C46.1711 6.44149 46.8498 7.12012 47.6869 7.12012Z" fill="#999999"/>
</svg>
