<svg width="80" height="80" viewBox="0 0 80 80" fill="none" xmlns="http://www.w3.org/2000/svg">
<path d="M27.4111 60.8101C27.2546 60.6922 27.0764 60.6064 26.8867 60.5577C26.697 60.5089 26.4995 60.4982 26.3056 60.5262C26.1117 60.5541 25.9253 60.6201 25.757 60.7204C25.5888 60.8207 25.442 60.9533 25.3252 61.1106C24.7596 61.8707 23.257 63.8682 23.0626 64.098C22.7574 64.399 22.3957 64.6368 21.9983 64.7976C21.6009 64.9583 21.1756 65.039 20.747 65.0348C18.9793 65.0348 18.8025 65.0348 4.14855 49.6914C3.82994 49.3946 3.57529 49.0358 3.40019 48.6371C3.22508 48.2384 3.13322 47.8081 3.13021 47.3726C3.12721 46.9372 3.21313 46.5057 3.38271 46.1046C3.5523 45.7035 3.80198 45.3412 4.11646 45.04C4.43094 44.7388 4.8036 44.5049 5.21162 44.3528C5.61964 44.2006 6.05442 44.1333 6.48935 44.1551C6.92428 44.1768 7.35019 44.2871 7.741 44.4792C8.13181 44.6713 8.47929 44.9412 8.76217 45.2722C12.5096 49.1965 16.4692 53.2621 19.103 55.8783C19.382 56.1572 19.7603 56.3139 20.1548 56.3139C20.5493 56.3139 20.9276 56.1572 21.2066 55.8783C21.4855 55.5993 21.6422 55.221 21.6422 54.8265C21.6422 54.432 21.4855 54.0537 21.2066 53.7747C18.5904 51.1586 14.6485 47.1106 10.901 43.1687C10.3551 42.5263 9.68361 42.0023 8.92783 41.6288C8.17205 41.2553 7.34791 41.0403 6.506 40.9968C5.66409 40.9533 4.82217 41.0823 4.03193 41.3759C3.24169 41.6696 2.51979 42.1216 1.91056 42.7043C1.30132 43.287 0.817598 43.9881 0.489081 44.7645C0.160564 45.5408 -0.00581558 46.3762 0.000155188 47.2192C0.00612596 48.0622 0.184321 48.8951 0.523802 49.6668C0.863284 50.4384 1.35689 51.1326 1.97432 51.7066C17.1586 67.5272 17.6005 67.9868 20.6939 68.0222C22.3305 68.0306 23.9048 67.3958 25.0777 66.2545C25.2545 66.0777 25.4843 65.8126 27.6232 62.949C27.7542 62.7966 27.853 62.6193 27.9135 62.4276C27.974 62.236 27.995 62.0341 27.9751 61.8341C27.9553 61.6341 27.8951 61.4403 27.7981 61.2642C27.7012 61.0882 27.5695 60.9337 27.4111 60.8101Z" fill="#999999"/>
<path d="M31.6357 39.2622C31.7932 39.3791 31.9724 39.4638 32.1628 39.5111C32.3532 39.5585 32.5511 39.5676 32.745 39.538C32.939 39.5084 33.1251 39.4407 33.2927 39.3387C33.4604 39.2368 33.6061 39.1026 33.7216 38.944L46.6432 21.391C46.8789 21.0219 47.1878 20.7052 47.5508 20.4603C47.9139 20.2155 48.3233 20.0477 48.7538 19.9675C49.1843 19.8873 49.6266 19.8963 50.0535 19.994C50.4804 20.0916 50.8826 20.2759 51.2354 20.5353C51.5882 20.7947 51.8839 21.1238 52.1044 21.5022C52.3248 21.8805 52.4652 22.3001 52.517 22.7349C52.5687 23.1698 52.5306 23.6106 52.4051 24.0301C52.2795 24.4496 52.0692 24.8389 51.7872 25.1738L37.9463 43.9465C37.7119 44.2653 37.6137 44.6641 37.6734 45.0553C37.7331 45.4465 37.9457 45.7979 38.2645 46.0323C38.5833 46.2668 38.9821 46.3649 39.3733 46.3052C39.7645 46.2456 40.1159 46.033 40.3503 45.7142L54.2796 26.9592C54.8171 26.3103 55.2164 25.5585 55.4531 24.7499C55.6897 23.9412 55.7587 23.0928 55.6558 22.2565C55.5529 21.4203 55.2803 20.6138 54.8546 19.8867C54.429 19.1595 53.8593 18.527 53.1805 18.0279C52.5017 17.5287 51.7281 17.1735 50.9071 16.9839C50.0862 16.7944 49.2351 16.7745 48.4062 16.9255C47.5773 17.0766 46.788 17.3953 46.0866 17.8623C45.3853 18.3292 44.7867 18.9345 44.3276 19.641L31.2999 37.1763C31.1838 37.3349 31.1004 37.5149 31.0544 37.706C31.0084 37.8971 31.0008 38.0954 31.0321 38.2894C31.0633 38.4834 31.1328 38.6693 31.2364 38.8363C31.34 39.0033 31.4757 39.148 31.6357 39.2622Z" fill="#999999"/>
<path d="M73.7244 12.8001C72.4786 12.7932 71.2586 13.1553 70.2182 13.8406C69.1779 14.5259 68.3636 15.5039 67.8781 16.6512C67.3925 17.7985 67.2575 19.0639 67.4899 20.2878C67.7223 21.5118 68.3118 22.6396 69.1841 23.5291C70.0564 24.4186 71.1724 25.03 72.3916 25.2862C73.6108 25.5425 74.8785 25.4321 76.0351 24.9691C77.1917 24.5061 78.1854 23.7111 78.8909 22.6842C79.5964 21.6574 79.9822 20.4448 79.9996 19.1991C80.009 18.3665 79.8539 17.5403 79.5434 16.7678C79.2329 15.9953 78.7729 15.2917 78.19 14.6973C77.607 14.1028 76.9125 13.6293 76.1462 13.3037C75.38 12.9782 74.557 12.807 73.7244 12.8001ZM73.7244 22.4516C73.0627 22.4585 72.414 22.2676 71.8614 21.9036C71.3088 21.5395 70.8775 21.0187 70.6227 20.408C70.368 19.7972 70.3013 19.1243 70.4314 18.4755C70.5614 17.8266 70.8822 17.2314 71.3527 16.766C71.8231 16.3006 72.4218 15.9863 73.072 15.8632C73.7222 15.7402 74.3944 15.8141 75.0023 16.0755C75.6103 16.3368 76.1263 16.7737 76.4844 17.3302C76.8425 17.8867 77.0263 18.5375 77.0123 19.1991C76.9896 20.0606 76.6348 20.8801 76.0221 21.4862C75.4094 22.0923 74.5862 22.4382 73.7244 22.4516Z" fill="#666666"/>
<path d="M68.421 25.5097C67.1008 24.5382 65.4491 24.1303 63.8285 24.3756C62.2078 24.6208 60.7508 25.4992 59.7771 26.8177C54.4741 33.8884 50.108 39.8632 46.2014 45.1132L40.6509 52.5727C38.1232 50.0096 34.7646 46.5626 31.5828 43.2217C31.0369 42.5794 30.3654 42.0554 29.6096 41.6819C28.8538 41.3084 28.0297 41.0933 27.1878 41.0498C26.3459 41.0063 25.5039 41.1353 24.7137 41.429C23.9235 41.7226 23.2016 42.1746 22.5923 42.7573C21.9831 43.34 21.4994 44.0411 21.1708 44.8175C20.8423 45.5939 20.6759 46.4292 20.6819 47.2722C20.6879 48.1152 20.8661 48.9481 21.2056 49.7198C21.545 50.4915 22.0387 51.1856 22.6561 51.7596C37.7343 67.5272 38.2646 67.9868 41.3934 68.0222C43.0299 68.0306 44.6043 67.3958 45.7772 66.2545C46.1484 65.8833 46.555 65.4767 69.6761 34.1889C70.1676 33.5382 70.5253 32.7965 70.7284 32.0067C70.9315 31.2169 70.976 30.3946 70.8592 29.5875C70.7425 28.7804 70.4669 28.0044 70.0484 27.3044C69.6299 26.6045 69.0768 25.9945 68.421 25.5097ZM67.3427 32.3859C51.3984 54.0399 44.3454 63.5323 43.7974 64.0979C43.1908 64.699 42.3711 65.0358 41.5171 65.0348C39.7494 65.0348 39.5727 65.0348 24.9187 49.6914C24.3879 49.0702 24.115 48.2694 24.1558 47.4534C24.1965 46.6373 24.548 45.8678 25.1381 45.3026C25.7282 44.7374 26.5121 44.4193 27.3292 44.4137C28.1462 44.4081 28.9345 44.7152 29.5323 45.2722C33.2798 49.1965 37.2393 53.2621 39.8732 55.8783C40.0238 56.033 40.2063 56.1531 40.4081 56.23C40.6099 56.307 40.826 56.339 41.0414 56.3239C41.2568 56.3087 41.4663 56.2468 41.6553 56.1423C41.8444 56.0379 42.0083 55.8935 42.1358 55.7192L48.7115 46.8808C52.6181 41.5778 57.0549 35.6915 62.2872 28.5677C62.6617 28.0564 63.1797 27.6679 63.7754 27.4514C64.3711 27.2348 65.0176 27.2001 65.6331 27.3516C66.2485 27.5031 66.8051 27.834 67.2322 28.3023C67.6593 28.7706 67.9377 29.3551 68.0321 29.9819C68.0939 30.4008 68.071 30.8279 67.9648 31.2378C67.8585 31.6477 67.671 32.0321 67.4135 32.3682L67.3427 32.3859Z" fill="#999999"/>
</svg>
