<svg width="80" height="80" viewBox="0 0 80 80" fill="none" xmlns="http://www.w3.org/2000/svg">
<path d="M73.0498 11.5268L40.7616 1.66885C40.4606 1.57706 40.139 1.57706 39.838 1.66885L7.53096 11.5268C7.20265 11.6247 6.91494 11.8264 6.71102 12.1017C6.50711 12.377 6.39798 12.711 6.40002 13.0536C6.40002 47.1324 16.6538 66.7541 39.6683 76.6687C39.8676 76.7553 40.0825 76.8 40.2998 76.8C40.517 76.8 40.732 76.7553 40.9312 76.6687C63.9269 66.7541 74.2184 47.1324 74.2184 13.0536C74.2181 12.7061 74.1035 12.3684 73.8924 12.0925C73.6812 11.8166 73.3851 11.6178 73.0498 11.5268ZM40.2904 73.4643C19.0288 64.0399 9.79283 46.2465 9.58549 14.2222L40.2904 4.85431L70.9952 14.2788C70.7879 46.2465 61.5519 64.0399 40.2904 73.4643Z" fill="#999999"/>
<path d="M39.8189 9.88696L15.3153 17.4265C14.987 17.5244 14.6993 17.7261 14.4954 18.0014C14.2915 18.2767 14.1824 18.6107 14.1844 18.9533C14.1844 37.4064 18.0673 49.9974 26.3796 58.536C26.5244 58.6857 26.6973 58.8055 26.8884 58.8885C27.0795 58.9714 27.2851 59.0159 27.4933 59.0194C27.7016 59.0229 27.9086 58.9853 28.1023 58.9088C28.2961 58.8324 28.4729 58.7185 28.6227 58.5737C28.7724 58.4289 28.8922 58.256 28.9751 58.0649C29.0581 57.8738 29.1026 57.6683 29.1061 57.46C29.1096 57.2517 29.072 57.0448 28.9955 56.851C28.9191 56.6572 28.8052 56.4804 28.6604 56.3307C21.1208 48.5461 17.5207 37.0105 17.351 20.1031L40.2901 13.0724L63.135 20.0465C62.9088 43.8527 56.0478 57.1223 40.2901 64.1718C38.1076 63.1993 36.0138 62.0389 34.0323 60.7036C33.6824 60.4662 33.2524 60.3774 32.8371 60.457C32.4217 60.5365 32.055 60.7778 31.8176 61.1277C31.5801 61.4776 31.4914 61.9076 31.5709 62.3229C31.6504 62.7383 31.8917 63.105 32.2417 63.3425C34.5787 64.9167 37.0589 66.2672 39.6493 67.3761C39.8488 67.4617 40.0636 67.5058 40.2807 67.5058C40.4978 67.5058 40.7126 67.4617 40.9121 67.3761C58.4793 59.8366 66.3205 44.7574 66.3205 18.8779C66.3225 18.5353 66.2134 18.2013 66.0095 17.926C65.8056 17.6507 65.5178 17.449 65.1895 17.3511L40.686 9.81156C40.3956 9.75521 40.0952 9.78133 39.8189 9.88696Z" fill="#999999"/>
<path d="M34.5224 38.7259C34.5224 39.8666 34.8606 40.9818 35.4944 41.9303C36.1282 42.8788 37.029 43.618 38.0829 44.0546C39.1368 44.4911 40.2965 44.6054 41.4154 44.3828C42.5342 44.1603 43.5619 43.6109 44.3685 42.8043C45.1752 41.9977 45.7245 40.9699 45.9471 39.8511C46.1696 38.7323 46.0554 37.5726 45.6188 36.5186C45.1823 35.4647 44.443 34.5639 43.4945 33.9301C42.546 33.2964 41.4309 32.9581 40.2901 32.9581C38.7619 32.9631 37.2978 33.5723 36.2172 34.6529C35.1366 35.7335 34.5273 37.1977 34.5224 38.7259ZM42.8913 38.7259C42.895 39.2411 42.7456 39.7459 42.4621 40.1761C42.1786 40.6063 41.7736 40.9426 41.2987 41.1424C40.8237 41.3422 40.3001 41.3964 39.7943 41.2982C39.2885 41.1999 38.8233 40.9537 38.4576 40.5907C38.0919 40.2277 37.8423 39.7642 37.7404 39.2591C37.6385 38.7541 37.6889 38.2301 37.8852 37.7537C38.0815 37.2773 38.4149 36.8699 38.8431 36.5833C39.2712 36.2966 39.7749 36.1436 40.2901 36.1436C40.9767 36.1435 41.6355 36.415 42.1228 36.8987C42.61 37.3825 42.8863 38.0393 42.8913 38.7259Z" fill="#666666"/>
<path d="M50.2426 22.8363C50.645 22.9588 51.0796 22.9164 51.4508 22.7184C51.822 22.5205 52.0993 22.1832 52.2218 21.7808C52.3442 21.3783 52.3018 20.9437 52.1039 20.5726C51.9059 20.2014 51.5686 19.9241 51.1662 19.8016L43.1931 17.3701C42.9917 17.2753 42.7725 17.224 42.5498 17.2196C42.3272 17.2153 42.1062 17.2579 41.9011 17.3448C41.6961 17.4317 41.5117 17.5608 41.36 17.7238C41.2082 17.8867 41.0926 18.0799 41.0206 18.2906C40.9486 18.5013 40.9218 18.7248 40.9421 18.9466C40.9623 19.1683 41.0291 19.3833 41.1381 19.5775C41.247 19.7717 41.3957 19.9407 41.5745 20.0735C41.7532 20.2063 41.9579 20.2999 42.1753 20.3482L50.2426 22.8363Z" fill="#999999"/>
<path d="M58.7814 25.4373C59.1838 25.5598 59.6184 25.5174 59.9895 25.3195C60.3607 25.1215 60.638 24.7842 60.7605 24.3818C60.883 23.9794 60.8406 23.5448 60.6426 23.1736C60.4447 22.8025 60.1074 22.5251 59.7049 22.4027L56.1991 21.3283C55.7966 21.2058 55.362 21.2482 54.9909 21.4461C54.6197 21.6441 54.3424 21.9814 54.2199 22.3838C54.0974 22.7862 54.1398 23.2208 54.3378 23.592C54.5357 23.9631 54.873 24.2405 55.2755 24.3629L58.7814 25.4373Z" fill="#999999"/>
</svg>
